<svg width="50" height="50" viewBox="0 0 50 50" fill="none" xmlns="http://www.w3.org/2000/svg">
<mask id="mask0_631_1425" style="mask-type:alpha" maskUnits="userSpaceOnUse" x="0" y="0" width="50" height="50">
<rect width="50" height="50" fill="#D9D9D9"/>
</mask>
<g mask="url(#mask0_631_1425)">
<path d="M25.0003 2.08337L43.8545 13.3334C44.4795 13.7153 44.9656 14.2362 45.3128 14.8959C45.66 15.5556 45.8337 16.25 45.8337 16.9792V39.5834C45.8337 40.7292 45.4257 41.7101 44.6097 42.5261C43.7937 43.3421 42.8128 43.75 41.667 43.75H8.33366C7.18783 43.75 6.20692 43.3421 5.39095 42.5261C4.57498 41.7101 4.16699 40.7292 4.16699 39.5834V16.9792C4.16699 16.25 4.3406 15.5556 4.68783 14.8959C5.03505 14.2362 5.52116 13.7153 6.14616 13.3334L25.0003 2.08337ZM25.0003 26.3542L41.2503 16.6667L25.0003 6.97921L8.75033 16.6667L25.0003 26.3542ZM25.0003 31.25L8.33366 21.25V39.5834H41.667V21.25L25.0003 31.25Z" fill="#D7A52B"/>
</g>
</svg>
