<svg width="20" height="20" viewBox="0 0 20 20" fill="none" xmlns="http://www.w3.org/2000/svg">
<mask id="mask0_349_345" style="mask-type:alpha" maskUnits="userSpaceOnUse" x="0" y="0" width="20" height="20">
<rect width="20" height="20" fill="#D9D9D9"/>
</mask>
<g mask="url(#mask0_349_345)">
<path d="M3.33332 18.3334V9.16671H1.66666V4.16671H5.99999C5.93055 4.04171 5.88541 3.90976 5.86457 3.77087C5.84374 3.63199 5.83332 3.48615 5.83332 3.33337C5.83332 2.63893 6.07638 2.04865 6.56249 1.56254C7.0486 1.07643 7.63888 0.833374 8.33332 0.833374C8.65277 0.833374 8.95138 0.892402 9.22916 1.01046C9.50693 1.12851 9.76388 1.29171 9.99999 1.50004C10.2361 1.27782 10.493 1.11115 10.7708 1.00004C11.0486 0.88893 11.3472 0.833374 11.6667 0.833374C12.3611 0.833374 12.9514 1.07643 13.4375 1.56254C13.9236 2.04865 14.1667 2.63893 14.1667 3.33337C14.1667 3.48615 14.1528 3.62851 14.125 3.76046C14.0972 3.8924 14.0555 4.02782 14 4.16671H18.3333V9.16671H16.6667V18.3334H3.33332ZM11.6667 2.50004C11.4305 2.50004 11.2326 2.5799 11.0729 2.73962C10.9132 2.89935 10.8333 3.09726 10.8333 3.33337C10.8333 3.56948 10.9132 3.7674 11.0729 3.92712C11.2326 4.08685 11.4305 4.16671 11.6667 4.16671C11.9028 4.16671 12.1007 4.08685 12.2604 3.92712C12.4201 3.7674 12.5 3.56948 12.5 3.33337C12.5 3.09726 12.4201 2.89935 12.2604 2.73962C12.1007 2.5799 11.9028 2.50004 11.6667 2.50004ZM7.49999 3.33337C7.49999 3.56948 7.57985 3.7674 7.73957 3.92712C7.8993 4.08685 8.09721 4.16671 8.33332 4.16671C8.56943 4.16671 8.76735 4.08685 8.92707 3.92712C9.0868 3.7674 9.16666 3.56948 9.16666 3.33337C9.16666 3.09726 9.0868 2.89935 8.92707 2.73962C8.76735 2.5799 8.56943 2.50004 8.33332 2.50004C8.09721 2.50004 7.8993 2.5799 7.73957 2.73962C7.57985 2.89935 7.49999 3.09726 7.49999 3.33337ZM3.33332 5.83337V7.50004H9.16666V5.83337H3.33332ZM9.16666 16.6667V9.16671H4.99999V16.6667H9.16666ZM10.8333 16.6667H15V9.16671H10.8333V16.6667ZM16.6667 7.50004V5.83337H10.8333V7.50004H16.6667Z" fill="#D7A52B"/>
</g>
</svg>
