<svg width="79" height="75" viewBox="0 0 79 75" fill="none" xmlns="http://www.w3.org/2000/svg">
<mask id="mask0_849_409" style="mask-type:alpha" maskUnits="userSpaceOnUse" x="0" y="0" width="50" height="50">
<rect width="50" height="50" fill="#CA60BF"/>
</mask>
<g mask="url(#mask0_849_409)">
<path d="M4.16699 45.8333V8.33329C4.16699 7.18746 4.57498 6.20656 5.39095 5.39058C6.20692 4.57461 7.18783 4.16663 8.33366 4.16663H41.667C42.8128 4.16663 43.7937 4.57461 44.6097 5.39058C45.4257 6.20656 45.8337 7.18746 45.8337 8.33329V33.3333C45.8337 34.4791 45.4257 35.46 44.6097 36.276C43.7937 37.092 42.8128 37.5 41.667 37.5H12.5003L4.16699 45.8333ZM10.7295 33.3333H41.667V8.33329H8.33366V35.677L10.7295 33.3333Z" fill="#04AB47"/>
</g>
<mask id="mask1_849_409" style="mask-type:alpha" maskUnits="userSpaceOnUse" x="7" y="3" width="72" height="72">
<rect x="78.5596" y="39.7761" width="50" height="50" transform="rotate(136.005 78.5596 39.7761)" fill="#D9D9D9"/>
</mask>
<g mask="url(#mask1_849_409)">
<path d="M29.4619 24.9179C32.7841 21.7102 36.7225 20.1279 41.2769 20.171C45.8313 20.214 49.7002 21.8842 52.8838 25.1815C54.4032 26.7552 55.5503 28.5556 56.3251 30.5828C57.0999 32.61 57.4558 34.7158 57.393 36.9002L56.9563 53.3942L40.4571 53.2521C38.2718 53.2383 36.1798 52.8087 34.181 51.9633C32.1823 51.1179 30.4232 49.9083 28.9037 48.3346C25.7202 45.0374 24.1868 41.1122 24.3035 36.5591C24.4202 32.006 26.1397 28.1256 29.4619 24.9179ZM32.356 27.9154C29.8581 30.3272 28.5609 33.2327 28.4645 36.6321C28.368 40.0314 29.5136 42.9675 31.9012 45.4405C33.0348 46.6145 34.3389 47.5153 35.8135 48.1428C37.2881 48.7702 38.836 49.0737 40.4571 49.053L52.9045 49.1977L53.1965 36.7529C53.274 35.1335 53.0251 33.576 52.4497 32.0803C51.8743 30.5845 51.0198 29.2496 49.8863 28.0756C47.4986 25.6027 44.6045 24.3548 41.2039 24.332C37.8032 24.3091 34.854 25.5036 32.356 27.9154Z" fill="#D7A52B"/>
</g>
</svg>
