<svg width="20" height="20" viewBox="0 0 20 20" fill="none" xmlns="http://www.w3.org/2000/svg">
<mask id="mask0_42_216" style="mask-type:alpha" maskUnits="userSpaceOnUse" x="0" y="0" width="20" height="20">
<rect width="20" height="20" fill="#D9D9D9"/>
</mask>
<g mask="url(#mask0_42_216)">
<path d="M10.8334 14.5834L13.75 11.6667C13.9028 11.5139 14.0243 11.3334 14.1146 11.125C14.2049 10.9167 14.25 10.6945 14.25 10.4584C14.25 9.98613 14.0834 9.58335 13.75 9.25002C13.4167 8.91669 13.0139 8.75002 12.5417 8.75002C12.2778 8.75002 12.0174 8.82641 11.7604 8.97919C11.5035 9.13197 11.1945 9.38891 10.8334 9.75002C10.4167 9.36113 10.0903 9.09724 9.85419 8.95835C9.61808 8.81947 9.37502 8.75002 9.12502 8.75002C8.6528 8.75002 8.25002 8.91669 7.91669 9.25002C7.58335 9.58335 7.41669 9.98613 7.41669 10.4584C7.41669 10.6945 7.46183 10.9167 7.5521 11.125C7.64238 11.3334 7.76391 11.5139 7.91669 11.6667L10.8334 14.5834ZM11.875 17.8334C11.5556 18.1528 11.1597 18.3125 10.6875 18.3125C10.2153 18.3125 9.81947 18.1528 9.50002 17.8334L2.16669 10.5C2.01391 10.3472 1.89238 10.1667 1.8021 9.95835C1.71183 9.75002 1.66669 9.5278 1.66669 9.29169V3.33335C1.66669 2.87502 1.82988 2.48266 2.15627 2.15627C2.48266 1.82988 2.87502 1.66669 3.33335 1.66669H9.29169C9.5278 1.66669 9.75002 1.71183 9.95835 1.8021C10.1667 1.89238 10.3472 2.01391 10.5 2.16669L17.8334 9.52085C18.1528 9.8403 18.3125 10.2327 18.3125 10.6979C18.3125 11.1632 18.1528 11.5556 17.8334 11.875L11.875 17.8334ZM10.6875 16.6667L16.6459 10.7084L9.29169 3.33335H3.33335V9.29169L10.6875 16.6667ZM5.41669 6.66669C5.76391 6.66669 6.05905 6.54516 6.3021 6.3021C6.54516 6.05905 6.66669 5.76391 6.66669 5.41669C6.66669 5.06946 6.54516 4.77433 6.3021 4.53127C6.05905 4.28821 5.76391 4.16669 5.41669 4.16669C5.06946 4.16669 4.77433 4.28821 4.53127 4.53127C4.28821 4.77433 4.16669 5.06946 4.16669 5.41669C4.16669 5.76391 4.28821 6.05905 4.53127 6.3021C4.77433 6.54516 5.06946 6.66669 5.41669 6.66669Z" fill="#D7A52B"/>
</g>
</svg>
