<svg width="18" height="18" viewBox="0 0 18 18" fill="none" xmlns="http://www.w3.org/2000/svg">
<path d="M9.83335 13.5834L12.75 10.6667C12.9028 10.5139 13.0243 10.3334 13.1146 10.125C13.2049 9.91669 13.25 9.69447 13.25 9.45835C13.25 8.98613 13.0834 8.58335 12.75 8.25002C12.4167 7.91669 12.0139 7.75002 11.5417 7.75002C11.2778 7.75002 11.0174 7.82641 10.7604 7.97919C10.5035 8.13197 10.1945 8.38891 9.83335 8.75002C9.41669 8.36113 9.0903 8.09724 8.85419 7.95835C8.61808 7.81947 8.37502 7.75002 8.12502 7.75002C7.6528 7.75002 7.25002 7.91669 6.91669 8.25002C6.58335 8.58335 6.41669 8.98613 6.41669 9.45835C6.41669 9.69447 6.46183 9.91669 6.5521 10.125C6.64238 10.3334 6.76391 10.5139 6.91669 10.6667L9.83335 13.5834ZM10.875 16.8334C10.5556 17.1528 10.1597 17.3125 9.68752 17.3125C9.2153 17.3125 8.81947 17.1528 8.50002 16.8334L1.16669 9.50002C1.01391 9.34724 0.892381 9.16669 0.802104 8.95835C0.711826 8.75002 0.666687 8.5278 0.666687 8.29169V2.33335C0.666687 1.87502 0.829881 1.48266 1.15627 1.15627C1.48266 0.829881 1.87502 0.666687 2.33335 0.666687H8.29169C8.5278 0.666687 8.75002 0.711826 8.95835 0.802104C9.16669 0.892381 9.34724 1.01391 9.50002 1.16669L16.8334 8.52085C17.1528 8.8403 17.3125 9.23266 17.3125 9.69794C17.3125 10.1632 17.1528 10.5556 16.8334 10.875L10.875 16.8334ZM9.68752 15.6667L15.6459 9.70835L8.29169 2.33335H2.33335V8.29169L9.68752 15.6667ZM4.41669 5.66669C4.76391 5.66669 5.05905 5.54516 5.3021 5.3021C5.54516 5.05905 5.66669 4.76391 5.66669 4.41669C5.66669 4.06946 5.54516 3.77433 5.3021 3.53127C5.05905 3.28821 4.76391 3.16669 4.41669 3.16669C4.06946 3.16669 3.77433 3.28821 3.53127 3.53127C3.28821 3.77433 3.16669 4.06946 3.16669 4.41669C3.16669 4.76391 3.28821 5.05905 3.53127 5.3021C3.77433 5.54516 4.06946 5.66669 4.41669 5.66669Z" fill="#D7A52B"/>
</svg>
