<svg width="18" height="18" viewBox="0 0 18 18" fill="none" xmlns="http://www.w3.org/2000/svg">
<path d="M9.83342 13.5833L12.7501 10.6667C12.9029 10.5139 13.0244 10.3333 13.1147 10.125C13.2049 9.91667 13.2501 9.69445 13.2501 9.45834C13.2501 8.98612 13.0834 8.58334 12.7501 8.25001C12.4167 7.91667 12.014 7.75001 11.5417 7.75001C11.2779 7.75001 11.0174 7.82639 10.7605 7.97917C10.5036 8.13195 10.1945 8.38889 9.83342 8.75001C9.41675 8.36112 9.09036 8.09723 8.85425 7.95834C8.61814 7.81945 8.37508 7.75001 8.12508 7.75001C7.65286 7.75001 7.25008 7.91667 6.91675 8.25001C6.58342 8.58334 6.41675 8.98612 6.41675 9.45834C6.41675 9.69445 6.46189 9.91667 6.55217 10.125C6.64244 10.3333 6.76397 10.5139 6.91675 10.6667L9.83342 13.5833ZM10.8751 16.8333C10.5556 17.1528 10.1598 17.3125 9.68758 17.3125C9.21536 17.3125 8.81953 17.1528 8.50008 16.8333L1.16675 9.50001C1.01397 9.34723 0.892443 9.16667 0.802165 8.95834C0.711887 8.75001 0.666748 8.52778 0.666748 8.29167V2.33334C0.666748 1.87501 0.829943 1.48264 1.15633 1.15626C1.48272 0.829866 1.87508 0.666672 2.33341 0.666672H8.29175C8.52786 0.666672 8.75008 0.711811 8.95842 0.802088C9.16675 0.892366 9.3473 1.01389 9.50008 1.16667L16.8334 8.52084C17.1529 8.84028 17.3126 9.23265 17.3126 9.69792C17.3126 10.1632 17.1529 10.5556 16.8334 10.875L10.8751 16.8333ZM9.68758 15.6667L15.6459 9.70834L8.29175 2.33334H2.33341V8.29167L9.68758 15.6667ZM4.41675 5.66667C4.76397 5.66667 5.05911 5.54514 5.30217 5.30209C5.54522 5.05903 5.66675 4.76389 5.66675 4.41667C5.66675 4.06945 5.54522 3.77431 5.30217 3.53126C5.05911 3.2882 4.76397 3.16667 4.41675 3.16667C4.06953 3.16667 3.77439 3.2882 3.53133 3.53126C3.28828 3.77431 3.16675 4.06945 3.16675 4.41667C3.16675 4.76389 3.28828 5.05903 3.53133 5.30209C3.77439 5.54514 4.06953 5.66667 4.41675 5.66667Z" fill="#04AB47"/>
</svg>
