<svg width="40" height="40" viewBox="0 0 40 40" fill="none" xmlns="http://www.w3.org/2000/svg">
<mask id="mask0_631_1428" style="mask-type:alpha" maskUnits="userSpaceOnUse" x="0" y="0" width="40" height="40">
<rect width="40" height="40" fill="#D9D9D9"/>
</mask>
<g mask="url(#mask0_631_1428)">
<path d="M16.6673 33.3334H23.334V31.6667H16.6673V33.3334ZM11.6673 38.3334C10.7507 38.3334 9.96593 38.007 9.31315 37.3543C8.66037 36.7015 8.33398 35.9167 8.33398 35.0001V5.00008C8.33398 4.08341 8.66037 3.29869 9.31315 2.64591C9.96593 1.99314 10.7507 1.66675 11.6673 1.66675H28.334C29.2507 1.66675 30.0354 1.99314 30.6882 2.64591C31.3409 3.29869 31.6673 4.08341 31.6673 5.00008V35.0001C31.6673 35.9167 31.3409 36.7015 30.6882 37.3543C30.0354 38.007 29.2507 38.3334 28.334 38.3334H11.6673ZM11.6673 30.0001V35.0001H28.334V30.0001H11.6673ZM11.6673 26.6667H28.334V10.0001H11.6673V26.6667ZM11.6673 6.66675H28.334V5.00008H11.6673V6.66675Z" fill="#D7A52B"/>
</g>
</svg>
