<svg width="14" height="18" viewBox="0 0 14 18" fill="none" xmlns="http://www.w3.org/2000/svg">
<path d="M3.66671 15.6667H10.3334V13.1667C10.3334 12.25 10.007 11.4653 9.35421 10.8125C8.70143 10.1597 7.91671 9.83334 7.00004 9.83334C6.08337 9.83334 5.29865 10.1597 4.64587 10.8125C3.9931 11.4653 3.66671 12.25 3.66671 13.1667V15.6667ZM7.00004 8.16667C7.91671 8.16667 8.70143 7.84028 9.35421 7.18751C10.007 6.53473 10.3334 5.75 10.3334 4.83334V2.33334H3.66671V4.83334C3.66671 5.75 3.9931 6.53473 4.64587 7.18751C5.29865 7.84028 6.08337 8.16667 7.00004 8.16667ZM0.333374 17.3333V15.6667H2.00004V13.1667C2.00004 12.3194 2.19796 11.5243 2.59379 10.7813C2.98962 10.0382 3.54171 9.44445 4.25004 9C3.54171 8.55556 2.98962 7.96181 2.59379 7.21876C2.19796 6.4757 2.00004 5.68056 2.00004 4.83334V2.33334H0.333374V0.666672H13.6667V2.33334H12V4.83334C12 5.68056 11.8021 6.4757 11.4063 7.21876C11.0105 7.96181 10.4584 8.55556 9.75004 9C10.4584 9.44445 11.0105 10.0382 11.4063 10.7813C11.8021 11.5243 12 12.3194 12 13.1667V15.6667H13.6667V17.3333H0.333374Z" fill="#FF674D"/>
</svg>
