<svg width="20" height="20" viewBox="0 0 20 20" fill="none" xmlns="http://www.w3.org/2000/svg">
<mask id="mask0_45_97" style="mask-type:alpha" maskUnits="userSpaceOnUse" x="0" y="0" width="20" height="20">
<rect width="20" height="20" fill="#D9D9D9"/>
</mask>
<g mask="url(#mask0_45_97)">
<path d="M1.66666 15.8334V4.16669H18.3333V15.8334H1.66666ZM4.16666 11.6667H6.66666C6.90277 11.6667 7.10068 11.5868 7.26041 11.4271C7.42013 11.2674 7.49999 11.0695 7.49999 10.8334V9.37502C7.49999 9.13891 7.42013 8.94099 7.26041 8.78127C7.10068 8.62155 6.90277 8.54169 6.66666 8.54169H5.41666V7.91669H7.49999V6.66669H4.16666V9.79169H6.24999V10.4167H4.16666V11.6667ZM9.16666 13.3334H15.8333V12.875C15.8333 12.25 15.5278 11.7535 14.9167 11.3854C14.3055 11.0174 13.5 10.8334 12.5 10.8334C11.5 10.8334 10.6944 11.0174 10.0833 11.3854C9.47221 11.7535 9.16666 12.25 9.16666 12.875V13.3334ZM12.5 10C12.9583 10 13.3507 9.83683 13.6771 9.51044C14.0035 9.18405 14.1667 8.79169 14.1667 8.33335C14.1667 7.87502 14.0035 7.48266 13.6771 7.15627C13.3507 6.82988 12.9583 6.66669 12.5 6.66669C12.0417 6.66669 11.6493 6.82988 11.3229 7.15627C10.9965 7.48266 10.8333 7.87502 10.8333 8.33335C10.8333 8.79169 10.9965 9.18405 11.3229 9.51044C11.6493 9.83683 12.0417 10 12.5 10ZM3.33332 14.1667H16.6667V5.83335H3.33332V14.1667Z" fill="#D7A52B"/>
</g>
</svg>
