<svg width="20" height="20" viewBox="0 0 20 20" fill="none" xmlns="http://www.w3.org/2000/svg">
<mask id="mask0_45_67" style="mask-type:alpha" maskUnits="userSpaceOnUse" x="0" y="0" width="20" height="20">
<rect width="20" height="20" fill="#D9D9D9"/>
</mask>
<g mask="url(#mask0_45_67)">
<path d="M6.66667 16.6667H13.3333V14.1667C13.3333 13.25 13.0069 12.4653 12.3542 11.8125C11.7014 11.1597 10.9167 10.8334 10 10.8334C9.08334 10.8334 8.29861 11.1597 7.64584 11.8125C6.99306 12.4653 6.66667 13.25 6.66667 14.1667V16.6667ZM10 9.16669C10.9167 9.16669 11.7014 8.8403 12.3542 8.18752C13.0069 7.53474 13.3333 6.75002 13.3333 5.83335V3.33335H6.66667V5.83335C6.66667 6.75002 6.99306 7.53474 7.64584 8.18752C8.29861 8.8403 9.08334 9.16669 10 9.16669ZM3.33334 18.3334V16.6667H5V14.1667C5 13.3195 5.19792 12.5243 5.59375 11.7813C5.98959 11.0382 6.54167 10.4445 7.25 10C6.54167 9.55558 5.98959 8.96183 5.59375 8.21877C5.19792 7.47571 5 6.68058 5 5.83335V3.33335H3.33334V1.66669H16.6667V3.33335H15V5.83335C15 6.68058 14.8021 7.47571 14.4063 8.21877C14.0104 8.96183 13.4583 9.55558 12.75 10C13.4583 10.4445 14.0104 11.0382 14.4063 11.7813C14.8021 12.5243 15 13.3195 15 14.1667V16.6667H16.6667V18.3334H3.33334Z" fill="#D7A52B"/>
</g>
</svg>
