<svg width="15" height="14" viewBox="0 0 15 14" fill="none" xmlns="http://www.w3.org/2000/svg">
<path d="M1.75 13.75C1.3375 13.75 0.984375 13.6031 0.690625 13.3094C0.396875 13.0156 0.25 12.6625 0.25 12.25V1.75C0.25 1.3375 0.396875 0.984375 0.690625 0.690625C0.984375 0.396875 1.3375 0.25 1.75 0.25H12.25C12.6625 0.25 13.0156 0.396875 13.3094 0.690625C13.6031 0.984375 13.75 1.3375 13.75 1.75V3.625H12.25V1.75H1.75V12.25H12.25V10.375H13.75V12.25C13.75 12.6625 13.6031 13.0156 13.3094 13.3094C13.0156 13.6031 12.6625 13.75 12.25 13.75H1.75ZM7.75 10.75C7.3375 10.75 6.98438 10.6031 6.69063 10.3094C6.39688 10.0156 6.25 9.6625 6.25 9.25V4.75C6.25 4.3375 6.39688 3.98438 6.69063 3.69063C6.98438 3.39688 7.3375 3.25 7.75 3.25H13C13.4125 3.25 13.7656 3.39688 14.0594 3.69063C14.3531 3.98438 14.5 4.3375 14.5 4.75V9.25C14.5 9.6625 14.3531 10.0156 14.0594 10.3094C13.7656 10.6031 13.4125 10.75 13 10.75H7.75ZM13 9.25V4.75H7.75V9.25H13ZM10 8.125C10.3125 8.125 10.5781 8.01562 10.7969 7.79688C11.0156 7.57812 11.125 7.3125 11.125 7C11.125 6.6875 11.0156 6.42188 10.7969 6.20312C10.5781 5.98438 10.3125 5.875 10 5.875C9.6875 5.875 9.42188 5.98438 9.20312 6.20312C8.98438 6.42188 8.875 6.6875 8.875 7C8.875 7.3125 8.98438 7.57812 9.20312 7.79688C9.42188 8.01562 9.6875 8.125 10 8.125Z" fill="#0058DB"/>
</svg>
