<svg width="20" height="20" viewBox="0 0 20 20" fill="none" xmlns="http://www.w3.org/2000/svg">
<path d="M3.85 15.1001C4.7 14.4501 5.65 13.9376 6.7 13.5626C7.75 13.1876 8.85 13.0001 10 13.0001C11.15 13.0001 12.25 13.1876 13.3 13.5626C14.35 13.9376 15.3 14.4501 16.15 15.1001C16.7333 14.4167 17.1875 13.6417 17.5125 12.7751C17.8375 11.9084 18 10.9834 18 10.0001C18 7.78339 17.2208 5.89589 15.6625 4.33756C14.1042 2.77923 12.2167 2.00006 10 2.00006C7.78333 2.00006 5.89583 2.77923 4.3375 4.33756C2.77917 5.89589 2 7.78339 2 10.0001C2 10.9834 2.1625 11.9084 2.4875 12.7751C2.8125 13.6417 3.26667 14.4167 3.85 15.1001ZM10 11.0001C9.01667 11.0001 8.1875 10.6626 7.5125 9.98756C6.8375 9.31256 6.5 8.48339 6.5 7.50006C6.5 6.51673 6.8375 5.68756 7.5125 5.01256C8.1875 4.33756 9.01667 4.00006 10 4.00006C10.9833 4.00006 11.8125 4.33756 12.4875 5.01256C13.1625 5.68756 13.5 6.51673 13.5 7.50006C13.5 8.48339 13.1625 9.31256 12.4875 9.98756C11.8125 10.6626 10.9833 11.0001 10 11.0001ZM10 20.0001C8.61667 20.0001 7.31667 19.7376 6.1 19.2126C4.88333 18.6876 3.825 17.9751 2.925 17.0751C2.025 16.1751 1.3125 15.1167 0.7875 13.9001C0.2625 12.6834 0 11.3834 0 10.0001C0 8.61673 0.2625 7.31673 0.7875 6.10006C1.3125 4.88339 2.025 3.82506 2.925 2.92506C3.825 2.02506 4.88333 1.31256 6.1 0.787561C7.31667 0.262561 8.61667 6.10352e-05 10 6.10352e-05C11.3833 6.10352e-05 12.6833 0.262561 13.9 0.787561C15.1167 1.31256 16.175 2.02506 17.075 2.92506C17.975 3.82506 18.6875 4.88339 19.2125 6.10006C19.7375 7.31673 20 8.61673 20 10.0001C20 11.3834 19.7375 12.6834 19.2125 13.9001C18.6875 15.1167 17.975 16.1751 17.075 17.0751C16.175 17.9751 15.1167 18.6876 13.9 19.2126C12.6833 19.7376 11.3833 20.0001 10 20.0001ZM10 18.0001C10.8833 18.0001 11.7167 17.8709 12.5 17.6126C13.2833 17.3542 14 16.9834 14.65 16.5001C14 16.0167 13.2833 15.6459 12.5 15.3876C11.7167 15.1292 10.8833 15.0001 10 15.0001C9.11667 15.0001 8.28333 15.1292 7.5 15.3876C6.71667 15.6459 6 16.0167 5.35 16.5001C6 16.9834 6.71667 17.3542 7.5 17.6126C8.28333 17.8709 9.11667 18.0001 10 18.0001ZM10 9.00006C10.4333 9.00006 10.7917 8.85839 11.075 8.57506C11.3583 8.29173 11.5 7.93339 11.5 7.50006C11.5 7.06673 11.3583 6.70839 11.075 6.42506C10.7917 6.14173 10.4333 6.00006 10 6.00006C9.56667 6.00006 9.20833 6.14173 8.925 6.42506C8.64167 6.70839 8.5 7.06673 8.5 7.50006C8.5 7.93339 8.64167 8.29173 8.925 8.57506C9.20833 8.85839 9.56667 9.00006 10 9.00006Z" fill="#52575C"/>
</svg>
