<svg width="24" height="24" viewBox="0 0 24 24" fill="none" xmlns="http://www.w3.org/2000/svg">
<mask id="mask0_631_1075" style="mask-type:alpha" maskUnits="userSpaceOnUse" x="0" y="0" width="24" height="24">
<rect width="24" height="24" fill="#D9D9D9"/>
</mask>
<g mask="url(#mask0_631_1075)">
<path d="M12 22C10.2333 22 8.79167 21.7208 7.675 21.1625C6.55833 20.6041 6 19.8833 6 19C6 18.4166 6.24167 17.9083 6.725 17.475C7.20833 17.0416 7.875 16.7 8.725 16.45L9.3 18.35C9.01667 18.4333 8.75833 18.5375 8.525 18.6625C8.29167 18.7875 8.13333 18.9 8.05 19C8.26667 19.2666 8.76667 19.5 9.55 19.7C10.3333 19.9 11.15 20 12 20C12.85 20 13.6708 19.9 14.4625 19.7C15.2542 19.5 15.7583 19.2666 15.975 19C15.8917 18.9 15.7333 18.7875 15.5 18.6625C15.2667 18.5375 15.0083 18.4333 14.725 18.35L15.3 16.45C16.15 16.7 16.8125 17.0416 17.2875 17.475C17.7625 17.9083 18 18.4166 18 19C18 19.8833 17.4417 20.6041 16.325 21.1625C15.2083 21.7208 13.7667 22 12 22ZM12 15.325C12.3 14.775 12.6167 14.2708 12.95 13.8125C13.2833 13.3541 13.6083 12.9166 13.925 12.5C14.5417 11.7 15.0333 10.9791 15.4 10.3375C15.7667 9.69578 15.95 8.89995 15.95 7.94995C15.95 6.84995 15.5667 5.91662 14.8 5.14995C14.0333 4.38328 13.1 3.99995 12 3.99995C10.9 3.99995 9.96667 4.38328 9.2 5.14995C8.43333 5.91662 8.05 6.84995 8.05 7.94995C8.05 8.89995 8.23333 9.69578 8.6 10.3375C8.96667 10.9791 9.45833 11.7 10.075 12.5C10.3917 12.9166 10.7167 13.3541 11.05 13.8125C11.3833 14.2708 11.7 14.775 12 15.325ZM12 19C11.8167 19 11.65 18.9458 11.5 18.8375C11.35 18.7291 11.2417 18.5833 11.175 18.4C10.7917 17.2166 10.3083 16.225 9.725 15.425C9.14167 14.625 8.575 13.8583 8.025 13.125C7.49167 12.3916 7.02917 11.6333 6.6375 10.85C6.24583 10.0666 6.05 9.09995 6.05 7.94995C6.05 6.28328 6.625 4.87495 7.775 3.72495C8.925 2.57495 10.3333 1.99995 12 1.99995C13.6667 1.99995 15.075 2.57495 16.225 3.72495C17.375 4.87495 17.95 6.28328 17.95 7.94995C17.95 9.09995 17.7583 10.0666 17.375 10.85C16.9917 11.6333 16.525 12.3916 15.975 13.125C15.4417 13.8583 14.8792 14.625 14.2875 15.425C13.6958 16.225 13.2083 17.2166 12.825 18.4C12.7583 18.5833 12.65 18.7291 12.5 18.8375C12.35 18.9458 12.1833 19 12 19ZM12 10.075C12.5833 10.075 13.0833 9.86662 13.5 9.44995C13.9167 9.03328 14.125 8.53328 14.125 7.94995C14.125 7.36662 13.9167 6.86662 13.5 6.44995C13.0833 6.03328 12.5833 5.82495 12 5.82495C11.4167 5.82495 10.9167 6.03328 10.5 6.44995C10.0833 6.86662 9.875 7.36662 9.875 7.94995C9.875 8.53328 10.0833 9.03328 10.5 9.44995C10.9167 9.86662 11.4167 10.075 12 10.075Z" fill="#D7A52B"/>
</g>
</svg>
