<svg width="20" height="20" viewBox="0 0 20 20" fill="none" xmlns="http://www.w3.org/2000/svg">
<mask id="mask0_631_1471" style="mask-type:alpha" maskUnits="userSpaceOnUse" x="0" y="0" width="20" height="20">
<rect width="20" height="20" fill="#D9D9D9"/>
</mask>
<g mask="url(#mask0_631_1471)">
<path d="M9.99935 0.833252L17.541 5.33325C17.791 5.48603 17.9855 5.69436 18.1243 5.95825C18.2632 6.22214 18.3327 6.49992 18.3327 6.79159V15.8333C18.3327 16.2916 18.1695 16.6839 17.8431 17.0103C17.5167 17.3367 17.1243 17.4999 16.666 17.4999H3.33268C2.87435 17.4999 2.48199 17.3367 2.1556 17.0103C1.82921 16.6839 1.66602 16.2916 1.66602 15.8333V6.79159C1.66602 6.49992 1.73546 6.22214 1.87435 5.95825C2.01324 5.69436 2.20768 5.48603 2.45768 5.33325L9.99935 0.833252ZM9.99935 10.5416L16.4993 6.66658L9.99935 2.79159L3.49935 6.66658L9.99935 10.5416ZM9.99935 12.4999L3.33268 8.49992V15.8333H16.666V8.49992L9.99935 12.4999Z" fill="#D7A52B"/>
</g>
</svg>
