<svg width="40" height="40" viewBox="0 0 40 40" fill="none" xmlns="http://www.w3.org/2000/svg">
<mask id="mask0_1321_644" style="mask-type:alpha" maskUnits="userSpaceOnUse" x="0" y="0" width="40" height="40">
<rect width="40" height="40" fill="#D9D9D9"/>
</mask>
<g mask="url(#mask0_1321_644)">
<path d="M13.3333 14.9998V11.6665H26.6666V14.9998H13.3333ZM11.6666 38.3332C10.75 38.3332 9.96526 38.0068 9.31248 37.354C8.6597 36.7012 8.33331 35.9165 8.33331 34.9998V4.99984C8.33331 4.08317 8.6597 3.29845 9.31248 2.64567C9.96526 1.99289 10.75 1.6665 11.6666 1.6665H28.3333C29.25 1.6665 30.0347 1.99289 30.6875 2.64567C31.3403 3.29845 31.6666 4.08317 31.6666 4.99984V34.9998C31.6666 35.9165 31.3403 36.7012 30.6875 37.354C30.0347 38.0068 29.25 38.3332 28.3333 38.3332H11.6666ZM11.6666 33.3332V34.9998H28.3333V33.3332H11.6666ZM11.6666 29.9998H28.3333V9.99984H11.6666V29.9998ZM11.6666 6.6665H28.3333V4.99984H11.6666V6.6665Z" fill="#D7A52B"/>
</g>
</svg>
