<svg width="70" height="70" viewBox="0 0 70 70" fill="none" xmlns="http://www.w3.org/2000/svg">
<rect width="70" height="70" fill="#F5F5F5"/>
<g id="Group 1685">
<rect id="Rectangle 285" x="-118.5" y="-29.5" width="306" height="232" rx="4.5" fill="white" stroke="#D9D9D9"/>
</g>
<g id="check_circle">
<mask id="mask0_0_1" style="mask-type:alpha" maskUnits="userSpaceOnUse" x="0" y="0" width="70" height="70">
<rect id="Bounding box" width="70" height="70" fill="#D9D9D9"/>
</mask>
<g mask="url(#mask0_0_1)">
<path id="check_circle_2" d="M31.0833 48.4171L51.6458 27.8546L47.5625 23.7713L31.0833 40.2505L22.7708 31.938L18.6875 36.0213L31.0833 48.4171ZM35.1667 64.1671C31.1319 64.1671 27.3403 63.4015 23.7917 61.8702C20.2431 60.339 17.1562 58.2609 14.5312 55.6359C11.9062 53.0109 9.82812 49.9241 8.29688 46.3755C6.76562 42.8268 6 39.0352 6 35.0005C6 30.9657 6.76562 27.1741 8.29688 23.6255C9.82812 20.0768 11.9062 16.99 14.5312 14.365C17.1562 11.74 20.2431 9.66191 23.7917 8.13066C27.3403 6.59941 31.1319 5.83379 35.1667 5.83379C39.2014 5.83379 42.9931 6.59941 46.5417 8.13066C50.0903 9.66191 53.1771 11.74 55.8021 14.365C58.4271 16.99 60.5052 20.0768 62.0365 23.6255C63.5677 27.1741 64.3333 30.9657 64.3333 35.0005C64.3333 39.0352 63.5677 42.8268 62.0365 46.3755C60.5052 49.9241 58.4271 53.0109 55.8021 55.6359C53.1771 58.2609 50.0903 60.339 46.5417 61.8702C42.9931 63.4015 39.2014 64.1671 35.1667 64.1671ZM35.1667 58.3338C41.6806 58.3338 47.1979 56.0734 51.7187 51.5525C56.2396 47.0317 58.5 41.5143 58.5 35.0005C58.5 28.4866 56.2396 22.9692 51.7187 18.4484C47.1979 13.9275 41.6806 11.6671 35.1667 11.6671C28.6528 11.6671 23.1354 13.9275 18.6146 18.4484C14.0938 22.9692 11.8333 28.4866 11.8333 35.0005C11.8333 41.5143 14.0938 47.0317 18.6146 51.5525C23.1354 56.0734 28.6528 58.3338 35.1667 58.3338Z" fill="#04AB47"/>
</g>
</g>
</svg>
