<svg width="403" height="469" viewBox="0 0 403 469" fill="none" xmlns="http://www.w3.org/2000/svg">
<g filter="url(#filter0_d_210_455)">
<path d="M60 80C60 63.4315 73.4315 50 90 50H334C350.569 50 364 63.4315 364 80V398C364 414.569 350.569 428 334 428H90C73.4315 428 60 414.569 60 398V80Z" fill="white"/>
</g>
<path d="M139.968 92.08C139.168 92.08 138.443 91.92 137.792 91.6C137.141 91.28 136.576 90.848 136.096 90.304C135.627 89.7493 135.264 89.1307 135.008 88.448C134.752 87.7547 134.624 87.0453 134.624 86.32C134.624 85.5627 134.757 84.8427 135.024 84.16C135.301 83.4667 135.68 82.8533 136.16 82.32C136.651 81.776 137.221 81.3493 137.872 81.04C138.523 80.72 139.232 80.56 140 80.56C140.8 80.56 141.525 80.7253 142.176 81.056C142.827 81.3867 143.387 81.8293 143.856 82.384C144.325 82.9387 144.688 83.5573 144.944 84.24C145.2 84.9227 145.328 85.6213 145.328 86.336C145.328 87.0933 145.195 87.8187 144.928 88.512C144.661 89.1947 144.283 89.808 143.792 90.352C143.312 90.8853 142.747 91.3067 142.096 91.616C141.445 91.9253 140.736 92.08 139.968 92.08ZM136.08 86.32C136.08 86.896 136.171 87.456 136.352 88C136.544 88.5333 136.811 89.008 137.152 89.424C137.493 89.84 137.904 90.1707 138.384 90.416C138.864 90.6613 139.397 90.784 139.984 90.784C140.592 90.784 141.136 90.656 141.616 90.4C142.096 90.144 142.501 89.8027 142.832 89.376C143.173 88.9493 143.429 88.4693 143.6 87.936C143.781 87.4027 143.872 86.864 143.872 86.32C143.872 85.744 143.776 85.1893 143.584 84.656C143.403 84.1227 143.136 83.648 142.784 83.232C142.443 82.8053 142.032 82.4747 141.552 82.24C141.083 81.9947 140.56 81.872 139.984 81.872C139.376 81.872 138.832 82 138.352 82.256C137.872 82.5013 137.461 82.8373 137.12 83.264C136.789 83.6907 136.533 84.1707 136.352 84.704C136.171 85.2267 136.08 85.7653 136.08 86.32ZM149.655 92L146.375 83.648H147.847L150.471 90.656L153.095 83.648H154.471L151.191 92H149.655ZM159.444 92.16C158.815 92.16 158.239 92.048 157.716 91.824C157.204 91.5893 156.756 91.2747 156.372 90.88C155.999 90.4747 155.706 90.0107 155.492 89.488C155.29 88.9653 155.188 88.4107 155.188 87.824C155.188 87.0347 155.37 86.3147 155.732 85.664C156.095 85.0133 156.596 84.4907 157.236 84.096C157.887 83.7013 158.628 83.504 159.46 83.504C160.303 83.504 161.034 83.7067 161.652 84.112C162.282 84.5067 162.767 85.0293 163.108 85.68C163.46 86.32 163.636 87.0133 163.636 87.76C163.636 87.8667 163.631 87.9733 163.62 88.08C163.62 88.176 163.615 88.2507 163.604 88.304H156.676C156.719 88.848 156.868 89.3333 157.124 89.76C157.391 90.176 157.732 90.5067 158.148 90.752C158.564 90.9867 159.012 91.104 159.492 91.104C160.004 91.104 160.484 90.976 160.932 90.72C161.391 90.464 161.706 90.128 161.876 89.712L163.092 90.048C162.911 90.4533 162.639 90.816 162.276 91.136C161.924 91.456 161.503 91.7067 161.012 91.888C160.532 92.0693 160.01 92.16 159.444 92.16ZM156.628 87.328H162.324C162.282 86.784 162.127 86.304 161.86 85.888C161.594 85.472 161.252 85.1467 160.836 84.912C160.42 84.6773 159.962 84.56 159.46 84.56C158.97 84.56 158.516 84.6773 158.1 84.912C157.684 85.1467 157.343 85.472 157.076 85.888C156.82 86.304 156.671 86.784 156.628 87.328ZM169.768 84.88C169.064 84.8907 168.44 85.072 167.896 85.424C167.362 85.7653 166.984 86.24 166.76 86.848V92H165.352V83.648H166.664V85.584C166.952 85.008 167.33 84.544 167.8 84.192C168.28 83.8293 168.781 83.6267 169.304 83.584C169.41 83.584 169.501 83.584 169.576 83.584C169.65 83.584 169.714 83.5893 169.768 83.6V84.88ZM170.658 89.584C170.658 89.0507 170.807 88.592 171.106 88.208C171.415 87.8133 171.837 87.5093 172.37 87.296C172.903 87.0827 173.522 86.976 174.226 86.976C174.599 86.976 174.994 87.008 175.41 87.072C175.826 87.1253 176.194 87.2107 176.514 87.328V86.72C176.514 86.08 176.322 85.5787 175.938 85.216C175.554 84.8427 175.01 84.656 174.306 84.656C173.847 84.656 173.405 84.7413 172.978 84.912C172.562 85.072 172.119 85.3067 171.65 85.616L171.138 84.624C171.682 84.2507 172.226 83.9733 172.77 83.792C173.314 83.6 173.879 83.504 174.466 83.504C175.533 83.504 176.375 83.8027 176.994 84.4C177.613 84.9867 177.922 85.808 177.922 86.864V90.4C177.922 90.5707 177.954 90.6987 178.018 90.784C178.093 90.8587 178.21 90.9013 178.37 90.912V92C178.231 92.0213 178.109 92.0373 178.002 92.048C177.906 92.0587 177.826 92.064 177.762 92.064C177.431 92.064 177.181 91.9733 177.01 91.792C176.85 91.6107 176.759 91.4187 176.738 91.216L176.706 90.688C176.343 91.1573 175.869 91.52 175.282 91.776C174.695 92.032 174.114 92.16 173.538 92.16C172.983 92.16 172.487 92.048 172.05 91.824C171.613 91.5893 171.271 91.28 171.026 90.896C170.781 90.5013 170.658 90.064 170.658 89.584ZM176.098 90.176C176.226 90.0267 176.327 89.8773 176.402 89.728C176.477 89.568 176.514 89.4347 176.514 89.328V88.288C176.183 88.16 175.837 88.064 175.474 88C175.111 87.9253 174.754 87.888 174.402 87.888C173.687 87.888 173.106 88.032 172.658 88.32C172.221 88.5973 172.002 88.9813 172.002 89.472C172.002 89.7387 172.071 90 172.21 90.256C172.359 90.5013 172.573 90.704 172.85 90.864C173.138 91.024 173.49 91.104 173.906 91.104C174.343 91.104 174.759 91.0187 175.154 90.848C175.549 90.6667 175.863 90.4427 176.098 90.176ZM180.356 80.32H181.764V89.84C181.764 90.2987 181.828 90.5813 181.956 90.688C182.084 90.7947 182.238 90.848 182.42 90.848C182.644 90.848 182.857 90.8267 183.06 90.784C183.262 90.7307 183.433 90.6773 183.572 90.624L183.796 91.776C183.561 91.872 183.284 91.952 182.964 92.016C182.644 92.08 182.361 92.112 182.116 92.112C181.572 92.112 181.14 91.9573 180.82 91.648C180.51 91.3387 180.356 90.9067 180.356 90.352V80.32ZM185.084 80.32H186.492V89.84C186.492 90.2987 186.556 90.5813 186.684 90.688C186.812 90.7947 186.966 90.848 187.148 90.848C187.372 90.848 187.585 90.8267 187.788 90.784C187.99 90.7307 188.161 90.6773 188.3 90.624L188.524 91.776C188.289 91.872 188.012 91.952 187.692 92.016C187.372 92.08 187.089 92.112 186.844 92.112C186.3 92.112 185.868 91.9573 185.548 91.648C185.238 91.3387 185.084 90.9067 185.084 90.352V80.32ZM193.716 92V80.64H198.452C198.954 80.64 199.412 80.7467 199.828 80.96C200.244 81.1627 200.607 81.44 200.916 81.792C201.226 82.1333 201.466 82.5227 201.636 82.96C201.807 83.3867 201.892 83.824 201.892 84.272C201.892 84.8907 201.754 85.4827 201.476 86.048C201.199 86.6027 200.81 87.056 200.308 87.408C199.807 87.7493 199.22 87.92 198.548 87.92H195.156V92H193.716ZM195.156 86.64H198.468C198.863 86.64 199.204 86.5333 199.492 86.32C199.791 86.1067 200.02 85.8187 200.18 85.456C200.351 85.0933 200.436 84.6987 200.436 84.272C200.436 83.824 200.34 83.424 200.148 83.072C199.956 82.7093 199.706 82.4267 199.396 82.224C199.087 82.0213 198.746 81.92 198.372 81.92H195.156V86.64ZM207.151 92.16C206.521 92.16 205.945 92.048 205.423 91.824C204.911 91.5893 204.463 91.2747 204.079 90.88C203.705 90.4747 203.412 90.0107 203.199 89.488C202.996 88.9653 202.895 88.4107 202.895 87.824C202.895 87.0347 203.076 86.3147 203.439 85.664C203.801 85.0133 204.303 84.4907 204.943 84.096C205.593 83.7013 206.335 83.504 207.167 83.504C208.009 83.504 208.74 83.7067 209.359 84.112C209.988 84.5067 210.473 85.0293 210.815 85.68C211.167 86.32 211.343 87.0133 211.343 87.76C211.343 87.8667 211.337 87.9733 211.327 88.08C211.327 88.176 211.321 88.2507 211.311 88.304H204.383C204.425 88.848 204.575 89.3333 204.831 89.76C205.097 90.176 205.439 90.5067 205.855 90.752C206.271 90.9867 206.719 91.104 207.199 91.104C207.711 91.104 208.191 90.976 208.639 90.72C209.097 90.464 209.412 90.128 209.583 89.712L210.799 90.048C210.617 90.4533 210.345 90.816 209.983 91.136C209.631 91.456 209.209 91.7067 208.719 91.888C208.239 92.0693 207.716 92.16 207.151 92.16ZM204.335 87.328H210.031C209.988 86.784 209.833 86.304 209.567 85.888C209.3 85.472 208.959 85.1467 208.543 84.912C208.127 84.6773 207.668 84.56 207.167 84.56C206.676 84.56 206.223 84.6773 205.807 84.912C205.391 85.1467 205.049 85.472 204.783 85.888C204.527 86.304 204.377 86.784 204.335 87.328ZM217.474 84.88C216.77 84.8907 216.146 85.072 215.602 85.424C215.069 85.7653 214.69 86.24 214.466 86.848V92H213.058V83.648H214.37V85.584C214.658 85.008 215.037 84.544 215.506 84.192C215.986 83.8293 216.487 83.6267 217.01 83.584C217.117 83.584 217.207 83.584 217.282 83.584C217.357 83.584 217.421 83.5893 217.474 83.6V84.88ZM219.468 92V84.752H218.332V83.648H219.468V83.472C219.468 82.7893 219.57 82.2027 219.772 81.712C219.986 81.2107 220.284 80.8267 220.668 80.56C221.052 80.2933 221.506 80.16 222.028 80.16C222.359 80.16 222.684 80.208 223.004 80.304C223.324 80.3893 223.612 80.512 223.868 80.672L223.516 81.712C223.367 81.6053 223.18 81.52 222.956 81.456C222.743 81.392 222.53 81.36 222.316 81.36C221.858 81.36 221.5 81.5413 221.244 81.904C220.999 82.256 220.876 82.7627 220.876 83.424V83.648H223.1V84.752H220.876V92H219.468ZM228.1 92.16C227.47 92.16 226.9 92.048 226.388 91.824C225.876 91.5893 225.433 91.2747 225.06 90.88C224.686 90.4747 224.398 90.0107 224.196 89.488C223.993 88.9653 223.892 88.416 223.892 87.84C223.892 87.2533 223.993 86.6987 224.196 86.176C224.398 85.6533 224.686 85.1947 225.06 84.8C225.433 84.3947 225.876 84.08 226.388 83.856C226.91 83.6213 227.481 83.504 228.1 83.504C228.729 83.504 229.3 83.6213 229.812 83.856C230.324 84.08 230.766 84.3947 231.14 84.8C231.524 85.1947 231.817 85.6533 232.02 86.176C232.222 86.6987 232.324 87.2533 232.324 87.84C232.324 88.416 232.222 88.9653 232.02 89.488C231.817 90.0107 231.529 90.4747 231.156 90.88C230.782 91.2747 230.334 91.5893 229.812 91.824C229.3 92.048 228.729 92.16 228.1 92.16ZM225.332 87.856C225.332 88.432 225.454 88.9547 225.7 89.424C225.956 89.8933 226.292 90.2667 226.708 90.544C227.124 90.8107 227.588 90.944 228.1 90.944C228.612 90.944 229.076 90.8053 229.492 90.528C229.918 90.2507 230.254 89.8773 230.5 89.408C230.756 88.928 230.884 88.4 230.884 87.824C230.884 87.248 230.756 86.7253 230.5 86.256C230.254 85.7867 229.918 85.4133 229.492 85.136C229.076 84.8587 228.612 84.72 228.1 84.72C227.588 84.72 227.124 84.864 226.708 85.152C226.292 85.4293 225.956 85.8027 225.7 86.272C225.454 86.7413 225.332 87.2693 225.332 87.856ZM238.596 84.88C237.892 84.8907 237.268 85.072 236.724 85.424C236.19 85.7653 235.812 86.24 235.588 86.848V92H234.18V83.648H235.492V85.584C235.78 85.008 236.158 84.544 236.628 84.192C237.108 83.8293 237.609 83.6267 238.132 83.584C238.238 83.584 238.329 83.584 238.404 83.584C238.478 83.584 238.542 83.5893 238.596 83.6V84.88ZM252.734 92H251.326V87.328C251.326 86.4533 251.182 85.808 250.894 85.392C250.617 84.976 250.201 84.768 249.646 84.768C249.081 84.768 248.569 84.976 248.11 85.392C247.652 85.7973 247.326 86.3253 247.134 86.976V92H245.726V87.328C245.726 86.4427 245.588 85.7973 245.31 85.392C245.033 84.976 244.617 84.768 244.062 84.768C243.508 84.768 242.996 84.9707 242.526 85.376C242.068 85.7707 241.742 86.2987 241.55 86.96V92H240.142V83.648H241.422V85.44C241.764 84.8213 242.206 84.3467 242.75 84.016C243.294 83.6747 243.908 83.504 244.59 83.504C245.284 83.504 245.838 83.696 246.254 84.08C246.67 84.4533 246.926 84.9387 247.022 85.536C247.396 84.8747 247.849 84.3733 248.382 84.032C248.916 83.68 249.524 83.504 250.206 83.504C250.686 83.504 251.086 83.5947 251.406 83.776C251.737 83.9467 251.998 84.192 252.19 84.512C252.382 84.8213 252.521 85.1893 252.606 85.616C252.692 86.0427 252.734 86.5067 252.734 87.008V92ZM254.418 89.584C254.418 89.0507 254.567 88.592 254.866 88.208C255.175 87.8133 255.596 87.5093 256.13 87.296C256.663 87.0827 257.282 86.976 257.986 86.976C258.359 86.976 258.754 87.008 259.17 87.072C259.586 87.1253 259.954 87.2107 260.274 87.328V86.72C260.274 86.08 260.082 85.5787 259.698 85.216C259.314 84.8427 258.77 84.656 258.066 84.656C257.607 84.656 257.164 84.7413 256.738 84.912C256.322 85.072 255.879 85.3067 255.41 85.616L254.898 84.624C255.442 84.2507 255.986 83.9733 256.53 83.792C257.074 83.6 257.639 83.504 258.226 83.504C259.292 83.504 260.135 83.8027 260.754 84.4C261.372 84.9867 261.682 85.808 261.682 86.864V90.4C261.682 90.5707 261.714 90.6987 261.778 90.784C261.852 90.8587 261.97 90.9013 262.13 90.912V92C261.991 92.0213 261.868 92.0373 261.762 92.048C261.666 92.0587 261.586 92.064 261.522 92.064C261.191 92.064 260.94 91.9733 260.77 91.792C260.61 91.6107 260.519 91.4187 260.498 91.216L260.466 90.688C260.103 91.1573 259.628 91.52 259.042 91.776C258.455 92.032 257.874 92.16 257.298 92.16C256.743 92.16 256.247 92.048 255.81 91.824C255.372 91.5893 255.031 91.28 254.786 90.896C254.54 90.5013 254.418 90.064 254.418 89.584ZM259.858 90.176C259.986 90.0267 260.087 89.8773 260.162 89.728C260.236 89.568 260.274 89.4347 260.274 89.328V88.288C259.943 88.16 259.596 88.064 259.234 88C258.871 87.9253 258.514 87.888 258.161 87.888C257.447 87.888 256.866 88.032 256.418 88.32C255.98 88.5973 255.762 88.9813 255.762 89.472C255.762 89.7387 255.831 90 255.97 90.256C256.119 90.5013 256.332 90.704 256.61 90.864C256.898 91.024 257.25 91.104 257.666 91.104C258.103 91.104 258.519 91.0187 258.914 90.848C259.308 90.6667 259.623 90.4427 259.858 90.176ZM271.331 92H269.923V87.328C269.923 86.4427 269.784 85.7973 269.507 85.392C269.24 84.976 268.83 84.768 268.275 84.768C267.891 84.768 267.507 84.864 267.123 85.056C266.75 85.248 266.414 85.5093 266.115 85.84C265.827 86.16 265.619 86.5333 265.491 86.96V92H264.083V83.648H265.363V85.44C265.587 85.0453 265.875 84.704 266.227 84.416C266.579 84.128 266.979 83.904 267.427 83.744C267.875 83.584 268.344 83.504 268.835 83.504C269.315 83.504 269.715 83.5947 270.035 83.776C270.366 83.9467 270.622 84.192 270.803 84.512C270.995 84.8213 271.128 85.1893 271.203 85.616C271.288 86.0427 271.331 86.5067 271.331 87.008V92ZM277.366 92.16C276.737 92.16 276.161 92.048 275.638 91.824C275.126 91.5893 274.678 91.2693 274.294 90.864C273.921 90.4587 273.628 89.9947 273.414 89.472C273.212 88.9493 273.11 88.3947 273.11 87.808C273.11 87.0187 273.286 86.2987 273.638 85.648C273.99 84.9973 274.486 84.48 275.126 84.096C275.766 83.7013 276.508 83.504 277.35 83.504C278.172 83.504 278.886 83.6907 279.494 84.064C280.113 84.4267 280.572 84.9173 280.87 85.536L279.494 85.968C279.281 85.5733 278.982 85.2693 278.598 85.056C278.214 84.832 277.788 84.72 277.318 84.72C276.806 84.72 276.337 84.8533 275.91 85.12C275.494 85.3867 275.164 85.7547 274.918 86.224C274.673 86.6827 274.55 87.2107 274.55 87.808C274.55 88.3947 274.673 88.928 274.918 89.408C275.174 89.8773 275.51 90.2507 275.926 90.528C276.353 90.8053 276.822 90.944 277.334 90.944C277.665 90.944 277.98 90.8853 278.278 90.768C278.588 90.6507 278.854 90.496 279.078 90.304C279.313 90.1013 279.473 89.8827 279.558 89.648L280.934 90.064C280.764 90.4693 280.502 90.832 280.15 91.152C279.809 91.4613 279.398 91.7067 278.918 91.888C278.449 92.0693 277.932 92.16 277.366 92.16ZM286.298 92.16C285.668 92.16 285.092 92.048 284.57 91.824C284.058 91.5893 283.61 91.2747 283.226 90.88C282.852 90.4747 282.559 90.0107 282.346 89.488C282.143 88.9653 282.042 88.4107 282.042 87.824C282.042 87.0347 282.223 86.3147 282.586 85.664C282.948 85.0133 283.45 84.4907 284.09 84.096C284.74 83.7013 285.482 83.504 286.314 83.504C287.156 83.504 287.887 83.7067 288.506 84.112C289.135 84.5067 289.62 85.0293 289.962 85.68C290.314 86.32 290.49 87.0133 290.49 87.76C290.49 87.8667 290.484 87.9733 290.474 88.08C290.474 88.176 290.468 88.2507 290.458 88.304H283.53C283.572 88.848 283.722 89.3333 283.978 89.76C284.244 90.176 284.586 90.5067 285.002 90.752C285.418 90.9867 285.866 91.104 286.346 91.104C286.858 91.104 287.338 90.976 287.786 90.72C288.244 90.464 288.559 90.128 288.73 89.712L289.946 90.048C289.764 90.4533 289.492 90.816 289.13 91.136C288.778 91.456 288.356 91.7067 287.866 91.888C287.386 92.0693 286.863 92.16 286.298 92.16ZM283.482 87.328H289.178C289.135 86.784 288.98 86.304 288.714 85.888C288.447 85.472 288.106 85.1467 287.69 84.912C287.274 84.6773 286.815 84.56 286.314 84.56C285.823 84.56 285.37 84.6773 284.954 84.912C284.538 85.1467 284.196 85.472 283.93 85.888C283.674 86.304 283.524 86.784 283.482 87.328Z" fill="#25282B"/>
<path d="M132.141 120.287H133.266C133.207 120.826 133.053 121.309 132.803 121.734C132.553 122.16 132.199 122.498 131.742 122.748C131.285 122.994 130.715 123.117 130.031 123.117C129.531 123.117 129.076 123.023 128.666 122.836C128.26 122.648 127.91 122.383 127.617 122.039C127.324 121.691 127.098 121.275 126.938 120.791C126.781 120.303 126.703 119.76 126.703 119.162V118.312C126.703 117.715 126.781 117.174 126.938 116.689C127.098 116.201 127.326 115.783 127.623 115.436C127.924 115.088 128.285 114.82 128.707 114.633C129.129 114.445 129.604 114.352 130.131 114.352C130.775 114.352 131.32 114.473 131.766 114.715C132.211 114.957 132.557 115.293 132.803 115.723C133.053 116.148 133.207 116.643 133.266 117.205H132.141C132.086 116.807 131.984 116.465 131.836 116.18C131.688 115.891 131.477 115.668 131.203 115.512C130.93 115.355 130.572 115.277 130.131 115.277C129.752 115.277 129.418 115.35 129.129 115.494C128.844 115.639 128.604 115.844 128.408 116.109C128.217 116.375 128.072 116.693 127.975 117.064C127.877 117.436 127.828 117.848 127.828 118.301V119.162C127.828 119.58 127.871 119.973 127.957 120.34C128.047 120.707 128.182 121.029 128.361 121.307C128.541 121.584 128.77 121.803 129.047 121.963C129.324 122.119 129.652 122.197 130.031 122.197C130.512 122.197 130.895 122.121 131.18 121.969C131.465 121.816 131.68 121.598 131.824 121.312C131.973 121.027 132.078 120.686 132.141 120.287ZM138.521 121.535V116.66H139.611V123H138.574L138.521 121.535ZM138.727 120.199L139.178 120.188C139.178 120.609 139.133 121 139.043 121.359C138.957 121.715 138.816 122.023 138.621 122.285C138.426 122.547 138.17 122.752 137.854 122.9C137.537 123.045 137.152 123.117 136.699 123.117C136.391 123.117 136.107 123.072 135.85 122.982C135.596 122.893 135.377 122.754 135.193 122.566C135.01 122.379 134.867 122.135 134.766 121.834C134.668 121.533 134.619 121.172 134.619 120.75V116.66H135.703V120.762C135.703 121.047 135.734 121.283 135.797 121.471C135.863 121.654 135.951 121.801 136.061 121.91C136.174 122.016 136.299 122.09 136.436 122.133C136.576 122.176 136.721 122.197 136.869 122.197C137.33 122.197 137.695 122.109 137.965 121.934C138.234 121.754 138.428 121.514 138.545 121.213C138.666 120.908 138.727 120.57 138.727 120.199ZM144.955 121.318C144.955 121.162 144.92 121.018 144.85 120.885C144.783 120.748 144.645 120.625 144.434 120.516C144.227 120.402 143.914 120.305 143.496 120.223C143.145 120.148 142.826 120.061 142.541 119.959C142.26 119.857 142.02 119.734 141.82 119.59C141.625 119.445 141.475 119.275 141.369 119.08C141.264 118.885 141.211 118.656 141.211 118.395C141.211 118.145 141.266 117.908 141.375 117.686C141.488 117.463 141.646 117.266 141.85 117.094C142.057 116.922 142.305 116.787 142.594 116.689C142.883 116.592 143.205 116.543 143.561 116.543C144.068 116.543 144.502 116.633 144.861 116.812C145.221 116.992 145.496 117.232 145.688 117.533C145.879 117.83 145.975 118.16 145.975 118.523H144.891C144.891 118.348 144.838 118.178 144.732 118.014C144.631 117.846 144.48 117.707 144.281 117.598C144.086 117.488 143.846 117.434 143.561 117.434C143.26 117.434 143.016 117.48 142.828 117.574C142.645 117.664 142.51 117.779 142.424 117.92C142.342 118.061 142.301 118.209 142.301 118.365C142.301 118.482 142.32 118.588 142.359 118.682C142.402 118.771 142.477 118.855 142.582 118.934C142.688 119.008 142.836 119.078 143.027 119.145C143.219 119.211 143.463 119.277 143.76 119.344C144.279 119.461 144.707 119.602 145.043 119.766C145.379 119.93 145.629 120.131 145.793 120.369C145.957 120.607 146.039 120.896 146.039 121.236C146.039 121.514 145.98 121.768 145.863 121.998C145.75 122.229 145.584 122.428 145.365 122.596C145.15 122.76 144.893 122.889 144.592 122.982C144.295 123.072 143.961 123.117 143.59 123.117C143.031 123.117 142.559 123.018 142.172 122.818C141.785 122.619 141.492 122.361 141.293 122.045C141.094 121.729 140.994 121.395 140.994 121.043H142.084C142.1 121.34 142.186 121.576 142.342 121.752C142.498 121.924 142.689 122.047 142.916 122.121C143.143 122.191 143.367 122.227 143.59 122.227C143.887 122.227 144.135 122.188 144.334 122.109C144.537 122.031 144.691 121.924 144.797 121.787C144.902 121.65 144.955 121.494 144.955 121.318ZM150.117 116.66V117.492H146.689V116.66H150.117ZM147.85 115.119H148.934V121.43C148.934 121.645 148.967 121.807 149.033 121.916C149.1 122.025 149.186 122.098 149.291 122.133C149.396 122.168 149.51 122.186 149.631 122.186C149.721 122.186 149.814 122.178 149.912 122.162C150.014 122.143 150.09 122.127 150.141 122.115L150.146 123C150.061 123.027 149.947 123.053 149.807 123.076C149.67 123.104 149.504 123.117 149.309 123.117C149.043 123.117 148.799 123.064 148.576 122.959C148.354 122.854 148.176 122.678 148.043 122.432C147.914 122.182 147.85 121.846 147.85 121.424V115.119ZM150.984 119.9V119.766C150.984 119.309 151.051 118.885 151.184 118.494C151.316 118.1 151.508 117.758 151.758 117.469C152.008 117.176 152.311 116.949 152.666 116.789C153.021 116.625 153.42 116.543 153.861 116.543C154.307 116.543 154.707 116.625 155.062 116.789C155.422 116.949 155.727 117.176 155.977 117.469C156.23 117.758 156.424 118.1 156.557 118.494C156.689 118.885 156.756 119.309 156.756 119.766V119.9C156.756 120.357 156.689 120.781 156.557 121.172C156.424 121.562 156.23 121.904 155.977 122.197C155.727 122.486 155.424 122.713 155.068 122.877C154.717 123.037 154.318 123.117 153.873 123.117C153.428 123.117 153.027 123.037 152.672 122.877C152.316 122.713 152.012 122.486 151.758 122.197C151.508 121.904 151.316 121.562 151.184 121.172C151.051 120.781 150.984 120.357 150.984 119.9ZM152.068 119.766V119.9C152.068 120.217 152.105 120.516 152.18 120.797C152.254 121.074 152.365 121.32 152.514 121.535C152.666 121.75 152.855 121.92 153.082 122.045C153.309 122.166 153.572 122.227 153.873 122.227C154.17 122.227 154.43 122.166 154.652 122.045C154.879 121.92 155.066 121.75 155.215 121.535C155.363 121.32 155.475 121.074 155.549 120.797C155.627 120.516 155.666 120.217 155.666 119.9V119.766C155.666 119.453 155.627 119.158 155.549 118.881C155.475 118.6 155.361 118.352 155.209 118.137C155.061 117.918 154.873 117.746 154.646 117.621C154.424 117.496 154.162 117.434 153.861 117.434C153.564 117.434 153.303 117.496 153.076 117.621C152.854 117.746 152.666 117.918 152.514 118.137C152.365 118.352 152.254 118.6 152.18 118.881C152.105 119.158 152.068 119.453 152.068 119.766ZM159.193 117.92V123H158.104V116.66H159.135L159.193 117.92ZM158.971 119.59L158.467 119.572C158.471 119.139 158.527 118.738 158.637 118.371C158.746 118 158.908 117.678 159.123 117.404C159.338 117.131 159.605 116.92 159.926 116.771C160.246 116.619 160.617 116.543 161.039 116.543C161.336 116.543 161.609 116.586 161.859 116.672C162.109 116.754 162.326 116.885 162.51 117.064C162.693 117.244 162.836 117.475 162.938 117.756C163.039 118.037 163.09 118.377 163.09 118.775V123H162.006V118.828C162.006 118.496 161.949 118.23 161.836 118.031C161.727 117.832 161.57 117.688 161.367 117.598C161.164 117.504 160.926 117.457 160.652 117.457C160.332 117.457 160.064 117.514 159.85 117.627C159.635 117.74 159.463 117.896 159.334 118.096C159.205 118.295 159.111 118.523 159.053 118.781C158.998 119.035 158.971 119.305 158.971 119.59ZM163.078 118.992L162.352 119.215C162.355 118.867 162.412 118.533 162.521 118.213C162.635 117.893 162.797 117.607 163.008 117.357C163.223 117.107 163.486 116.91 163.799 116.766C164.111 116.617 164.469 116.543 164.871 116.543C165.211 116.543 165.512 116.588 165.773 116.678C166.039 116.768 166.262 116.906 166.441 117.094C166.625 117.277 166.764 117.514 166.857 117.803C166.951 118.092 166.998 118.436 166.998 118.834V123H165.908V118.822C165.908 118.467 165.852 118.191 165.738 117.996C165.629 117.797 165.473 117.658 165.27 117.58C165.07 117.498 164.832 117.457 164.555 117.457C164.316 117.457 164.105 117.498 163.922 117.58C163.738 117.662 163.584 117.775 163.459 117.92C163.334 118.061 163.238 118.223 163.172 118.406C163.109 118.59 163.078 118.785 163.078 118.992ZM171.27 123.117C170.828 123.117 170.428 123.043 170.068 122.895C169.713 122.742 169.406 122.529 169.148 122.256C168.895 121.982 168.699 121.658 168.562 121.283C168.426 120.908 168.357 120.498 168.357 120.053V119.807C168.357 119.291 168.434 118.832 168.586 118.43C168.738 118.023 168.945 117.68 169.207 117.398C169.469 117.117 169.766 116.904 170.098 116.76C170.43 116.615 170.773 116.543 171.129 116.543C171.582 116.543 171.973 116.621 172.301 116.777C172.633 116.934 172.904 117.152 173.115 117.434C173.326 117.711 173.482 118.039 173.584 118.418C173.686 118.793 173.736 119.203 173.736 119.648V120.135H169.002V119.25H172.652V119.168C172.637 118.887 172.578 118.613 172.477 118.348C172.379 118.082 172.223 117.863 172.008 117.691C171.793 117.52 171.5 117.434 171.129 117.434C170.883 117.434 170.656 117.486 170.449 117.592C170.242 117.693 170.064 117.846 169.916 118.049C169.768 118.252 169.652 118.5 169.57 118.793C169.488 119.086 169.447 119.424 169.447 119.807V120.053C169.447 120.354 169.488 120.637 169.57 120.902C169.656 121.164 169.779 121.395 169.939 121.594C170.104 121.793 170.301 121.949 170.531 122.062C170.766 122.176 171.031 122.232 171.328 122.232C171.711 122.232 172.035 122.154 172.301 121.998C172.566 121.842 172.799 121.633 172.998 121.371L173.654 121.893C173.518 122.1 173.344 122.297 173.133 122.484C172.922 122.672 172.662 122.824 172.354 122.941C172.049 123.059 171.688 123.117 171.27 123.117ZM176.086 117.656V123H175.002V116.66H176.057L176.086 117.656ZM178.066 116.625L178.061 117.633C177.971 117.613 177.885 117.602 177.803 117.598C177.725 117.59 177.635 117.586 177.533 117.586C177.283 117.586 177.062 117.625 176.871 117.703C176.68 117.781 176.518 117.891 176.385 118.031C176.252 118.172 176.146 118.34 176.068 118.535C175.994 118.727 175.945 118.938 175.922 119.168L175.617 119.344C175.617 118.961 175.654 118.602 175.729 118.266C175.807 117.93 175.926 117.633 176.086 117.375C176.246 117.113 176.449 116.91 176.695 116.766C176.945 116.617 177.242 116.543 177.586 116.543C177.664 116.543 177.754 116.553 177.855 116.572C177.957 116.588 178.027 116.605 178.066 116.625ZM182.76 121.318C182.76 121.162 182.725 121.018 182.654 120.885C182.588 120.748 182.449 120.625 182.238 120.516C182.031 120.402 181.719 120.305 181.301 120.223C180.949 120.148 180.631 120.061 180.346 119.959C180.064 119.857 179.824 119.734 179.625 119.59C179.43 119.445 179.279 119.275 179.174 119.08C179.068 118.885 179.016 118.656 179.016 118.395C179.016 118.145 179.07 117.908 179.18 117.686C179.293 117.463 179.451 117.266 179.654 117.094C179.861 116.922 180.109 116.787 180.398 116.689C180.688 116.592 181.01 116.543 181.365 116.543C181.873 116.543 182.307 116.633 182.666 116.812C183.025 116.992 183.301 117.232 183.492 117.533C183.684 117.83 183.779 118.16 183.779 118.523H182.695C182.695 118.348 182.643 118.178 182.537 118.014C182.436 117.846 182.285 117.707 182.086 117.598C181.891 117.488 181.65 117.434 181.365 117.434C181.064 117.434 180.82 117.48 180.633 117.574C180.449 117.664 180.314 117.779 180.229 117.92C180.146 118.061 180.105 118.209 180.105 118.365C180.105 118.482 180.125 118.588 180.164 118.682C180.207 118.771 180.281 118.855 180.387 118.934C180.492 119.008 180.641 119.078 180.832 119.145C181.023 119.211 181.268 119.277 181.564 119.344C182.084 119.461 182.512 119.602 182.848 119.766C183.184 119.93 183.434 120.131 183.598 120.369C183.762 120.607 183.844 120.896 183.844 121.236C183.844 121.514 183.785 121.768 183.668 121.998C183.555 122.229 183.389 122.428 183.17 122.596C182.955 122.76 182.697 122.889 182.396 122.982C182.1 123.072 181.766 123.117 181.395 123.117C180.836 123.117 180.363 123.018 179.977 122.818C179.59 122.619 179.297 122.361 179.098 122.045C178.898 121.729 178.799 121.395 178.799 121.043H179.889C179.904 121.34 179.99 121.576 180.146 121.752C180.303 121.924 180.494 122.047 180.721 122.121C180.947 122.191 181.172 122.227 181.395 122.227C181.691 122.227 181.939 122.188 182.139 122.109C182.342 122.031 182.496 121.924 182.602 121.787C182.707 121.65 182.76 121.494 182.76 121.318ZM190.025 122.344L191.789 116.66H192.949L190.406 123.979C190.348 124.135 190.27 124.303 190.172 124.482C190.078 124.666 189.957 124.84 189.809 125.004C189.66 125.168 189.48 125.301 189.27 125.402C189.062 125.508 188.814 125.561 188.525 125.561C188.439 125.561 188.33 125.549 188.197 125.525C188.064 125.502 187.971 125.482 187.916 125.467L187.91 124.588C187.941 124.592 187.99 124.596 188.057 124.6C188.127 124.607 188.176 124.611 188.203 124.611C188.449 124.611 188.658 124.578 188.83 124.512C189.002 124.449 189.146 124.342 189.264 124.189C189.385 124.041 189.488 123.836 189.574 123.574L190.025 122.344ZM188.73 116.66L190.377 121.582L190.658 122.725L189.879 123.123L187.547 116.66H188.73ZM193.547 119.9V119.766C193.547 119.309 193.613 118.885 193.746 118.494C193.879 118.1 194.07 117.758 194.32 117.469C194.57 117.176 194.873 116.949 195.229 116.789C195.584 116.625 195.982 116.543 196.424 116.543C196.869 116.543 197.27 116.625 197.625 116.789C197.984 116.949 198.289 117.176 198.539 117.469C198.793 117.758 198.986 118.1 199.119 118.494C199.252 118.885 199.318 119.309 199.318 119.766V119.9C199.318 120.357 199.252 120.781 199.119 121.172C198.986 121.562 198.793 121.904 198.539 122.197C198.289 122.486 197.986 122.713 197.631 122.877C197.279 123.037 196.881 123.117 196.436 123.117C195.99 123.117 195.59 123.037 195.234 122.877C194.879 122.713 194.574 122.486 194.32 122.197C194.07 121.904 193.879 121.562 193.746 121.172C193.613 120.781 193.547 120.357 193.547 119.9ZM194.631 119.766V119.9C194.631 120.217 194.668 120.516 194.742 120.797C194.816 121.074 194.928 121.32 195.076 121.535C195.229 121.75 195.418 121.92 195.645 122.045C195.871 122.166 196.135 122.227 196.436 122.227C196.732 122.227 196.992 122.166 197.215 122.045C197.441 121.92 197.629 121.75 197.777 121.535C197.926 121.32 198.037 121.074 198.111 120.797C198.189 120.516 198.229 120.217 198.229 119.9V119.766C198.229 119.453 198.189 119.158 198.111 118.881C198.037 118.6 197.924 118.352 197.771 118.137C197.623 117.918 197.436 117.746 197.209 117.621C196.986 117.496 196.725 117.434 196.424 117.434C196.127 117.434 195.865 117.496 195.639 117.621C195.416 117.746 195.229 117.918 195.076 118.137C194.928 118.352 194.816 118.6 194.742 118.881C194.668 119.158 194.631 119.453 194.631 119.766ZM204.557 121.535V116.66H205.646V123H204.609L204.557 121.535ZM204.762 120.199L205.213 120.188C205.213 120.609 205.168 121 205.078 121.359C204.992 121.715 204.852 122.023 204.656 122.285C204.461 122.547 204.205 122.752 203.889 122.9C203.572 123.045 203.188 123.117 202.734 123.117C202.426 123.117 202.143 123.072 201.885 122.982C201.631 122.893 201.412 122.754 201.229 122.566C201.045 122.379 200.902 122.135 200.801 121.834C200.703 121.533 200.654 121.172 200.654 120.75V116.66H201.738V120.762C201.738 121.047 201.77 121.283 201.832 121.471C201.898 121.654 201.986 121.801 202.096 121.91C202.209 122.016 202.334 122.09 202.471 122.133C202.611 122.176 202.756 122.197 202.904 122.197C203.365 122.197 203.73 122.109 204 121.934C204.27 121.754 204.463 121.514 204.58 121.213C204.701 120.908 204.762 120.57 204.762 120.199ZM214.383 116.66H215.367V122.865C215.367 123.424 215.254 123.9 215.027 124.295C214.801 124.689 214.484 124.988 214.078 125.191C213.676 125.398 213.211 125.502 212.684 125.502C212.465 125.502 212.207 125.467 211.91 125.396C211.617 125.33 211.328 125.215 211.043 125.051C210.762 124.891 210.525 124.674 210.334 124.4L210.902 123.756C211.168 124.076 211.445 124.299 211.734 124.424C212.027 124.549 212.316 124.611 212.602 124.611C212.945 124.611 213.242 124.547 213.492 124.418C213.742 124.289 213.936 124.098 214.072 123.844C214.213 123.594 214.283 123.285 214.283 122.918V118.055L214.383 116.66ZM210.018 119.9V119.777C210.018 119.293 210.074 118.854 210.188 118.459C210.305 118.061 210.471 117.719 210.686 117.434C210.904 117.148 211.168 116.93 211.477 116.777C211.785 116.621 212.133 116.543 212.52 116.543C212.918 116.543 213.266 116.613 213.562 116.754C213.863 116.891 214.117 117.092 214.324 117.357C214.535 117.619 214.701 117.936 214.822 118.307C214.943 118.678 215.027 119.098 215.074 119.566V120.105C215.031 120.57 214.947 120.988 214.822 121.359C214.701 121.73 214.535 122.047 214.324 122.309C214.117 122.57 213.863 122.771 213.562 122.912C213.262 123.049 212.91 123.117 212.508 123.117C212.129 123.117 211.785 123.037 211.477 122.877C211.172 122.717 210.91 122.492 210.691 122.203C210.473 121.914 210.305 121.574 210.188 121.184C210.074 120.789 210.018 120.361 210.018 119.9ZM211.102 119.777V119.9C211.102 120.217 211.133 120.514 211.195 120.791C211.262 121.068 211.361 121.312 211.494 121.523C211.631 121.734 211.805 121.9 212.016 122.021C212.227 122.139 212.479 122.197 212.771 122.197C213.131 122.197 213.428 122.121 213.662 121.969C213.896 121.816 214.082 121.615 214.219 121.365C214.359 121.115 214.469 120.844 214.547 120.551V119.139C214.504 118.924 214.438 118.717 214.348 118.518C214.262 118.314 214.148 118.135 214.008 117.979C213.871 117.818 213.701 117.691 213.498 117.598C213.295 117.504 213.057 117.457 212.783 117.457C212.486 117.457 212.23 117.52 212.016 117.645C211.805 117.766 211.631 117.934 211.494 118.148C211.361 118.359 211.262 118.605 211.195 118.887C211.133 119.164 211.102 119.461 211.102 119.777ZM218.191 116.66V123H217.102V116.66H218.191ZM217.02 114.979C217.02 114.803 217.072 114.654 217.178 114.533C217.287 114.412 217.447 114.352 217.658 114.352C217.865 114.352 218.023 114.412 218.133 114.533C218.246 114.654 218.303 114.803 218.303 114.979C218.303 115.146 218.246 115.291 218.133 115.412C218.023 115.529 217.865 115.588 217.658 115.588C217.447 115.588 217.287 115.529 217.178 115.412C217.072 115.291 217.02 115.146 217.02 114.979ZM221.549 123H220.465V115.992C220.465 115.535 220.547 115.15 220.711 114.838C220.879 114.521 221.119 114.283 221.432 114.123C221.744 113.959 222.115 113.877 222.545 113.877C222.67 113.877 222.795 113.885 222.92 113.9C223.049 113.916 223.174 113.939 223.295 113.971L223.236 114.855C223.154 114.836 223.061 114.822 222.955 114.814C222.854 114.807 222.752 114.803 222.65 114.803C222.42 114.803 222.221 114.85 222.053 114.943C221.889 115.033 221.764 115.166 221.678 115.342C221.592 115.518 221.549 115.734 221.549 115.992V123ZM222.896 116.66V117.492H219.463V116.66H222.896ZM226.758 116.66V117.492H223.33V116.66H226.758ZM224.49 115.119H225.574V121.43C225.574 121.645 225.607 121.807 225.674 121.916C225.74 122.025 225.826 122.098 225.932 122.133C226.037 122.168 226.15 122.186 226.271 122.186C226.361 122.186 226.455 122.178 226.553 122.162C226.654 122.143 226.73 122.127 226.781 122.115L226.787 123C226.701 123.027 226.588 123.053 226.447 123.076C226.311 123.104 226.145 123.117 225.949 123.117C225.684 123.117 225.439 123.064 225.217 122.959C224.994 122.854 224.816 122.678 224.684 122.432C224.555 122.182 224.49 121.846 224.49 121.424V115.119ZM230.66 123.117C230.219 123.117 229.818 123.043 229.459 122.895C229.104 122.742 228.797 122.529 228.539 122.256C228.285 121.982 228.09 121.658 227.953 121.283C227.816 120.908 227.748 120.498 227.748 120.053V119.807C227.748 119.291 227.824 118.832 227.977 118.43C228.129 118.023 228.336 117.68 228.598 117.398C228.859 117.117 229.156 116.904 229.488 116.76C229.82 116.615 230.164 116.543 230.52 116.543C230.973 116.543 231.363 116.621 231.691 116.777C232.023 116.934 232.295 117.152 232.506 117.434C232.717 117.711 232.873 118.039 232.975 118.418C233.076 118.793 233.127 119.203 233.127 119.648V120.135H228.393V119.25H232.043V119.168C232.027 118.887 231.969 118.613 231.867 118.348C231.77 118.082 231.613 117.863 231.398 117.691C231.184 117.52 230.891 117.434 230.52 117.434C230.273 117.434 230.047 117.486 229.84 117.592C229.633 117.693 229.455 117.846 229.307 118.049C229.158 118.252 229.043 118.5 228.961 118.793C228.879 119.086 228.838 119.424 228.838 119.807V120.053C228.838 120.354 228.879 120.637 228.961 120.902C229.047 121.164 229.17 121.395 229.33 121.594C229.494 121.793 229.691 121.949 229.922 122.062C230.156 122.176 230.422 122.232 230.719 122.232C231.102 122.232 231.426 122.154 231.691 121.998C231.957 121.842 232.189 121.633 232.389 121.371L233.045 121.893C232.908 122.1 232.734 122.297 232.523 122.484C232.312 122.672 232.053 122.824 231.744 122.941C231.439 123.059 231.078 123.117 230.66 123.117ZM238.389 121.77V114H239.479V123H238.482L238.389 121.77ZM234.123 119.9V119.777C234.123 119.293 234.182 118.854 234.299 118.459C234.42 118.061 234.59 117.719 234.809 117.434C235.031 117.148 235.295 116.93 235.6 116.777C235.908 116.621 236.252 116.543 236.631 116.543C237.029 116.543 237.377 116.613 237.674 116.754C237.975 116.891 238.229 117.092 238.436 117.357C238.646 117.619 238.812 117.936 238.934 118.307C239.055 118.678 239.139 119.098 239.186 119.566V120.105C239.143 120.57 239.059 120.988 238.934 121.359C238.812 121.73 238.646 122.047 238.436 122.309C238.229 122.57 237.975 122.771 237.674 122.912C237.373 123.049 237.021 123.117 236.619 123.117C236.248 123.117 235.908 123.037 235.6 122.877C235.295 122.717 235.031 122.492 234.809 122.203C234.59 121.914 234.42 121.574 234.299 121.184C234.182 120.789 234.123 120.361 234.123 119.9ZM235.213 119.777V119.9C235.213 120.217 235.244 120.514 235.307 120.791C235.373 121.068 235.475 121.312 235.611 121.523C235.748 121.734 235.922 121.9 236.133 122.021C236.344 122.139 236.596 122.197 236.889 122.197C237.248 122.197 237.543 122.121 237.773 121.969C238.008 121.816 238.195 121.615 238.336 121.365C238.477 121.115 238.586 120.844 238.664 120.551V119.139C238.617 118.924 238.549 118.717 238.459 118.518C238.373 118.314 238.26 118.135 238.119 117.979C237.982 117.818 237.812 117.691 237.609 117.598C237.41 117.504 237.174 117.457 236.9 117.457C236.604 117.457 236.348 117.52 236.133 117.645C235.922 117.766 235.748 117.934 235.611 118.148C235.475 118.359 235.373 118.605 235.307 118.887C235.244 119.164 235.213 119.461 235.213 119.777ZM246.68 122.227C246.938 122.227 247.176 122.174 247.395 122.068C247.613 121.963 247.793 121.818 247.934 121.635C248.074 121.447 248.154 121.234 248.174 120.996H249.205C249.186 121.371 249.059 121.721 248.824 122.045C248.594 122.365 248.291 122.625 247.916 122.824C247.541 123.02 247.129 123.117 246.68 123.117C246.203 123.117 245.787 123.033 245.432 122.865C245.08 122.697 244.787 122.467 244.553 122.174C244.322 121.881 244.148 121.545 244.031 121.166C243.918 120.783 243.861 120.379 243.861 119.953V119.707C243.861 119.281 243.918 118.879 244.031 118.5C244.148 118.117 244.322 117.779 244.553 117.486C244.787 117.193 245.08 116.963 245.432 116.795C245.787 116.627 246.203 116.543 246.68 116.543C247.176 116.543 247.609 116.645 247.98 116.848C248.352 117.047 248.643 117.32 248.854 117.668C249.068 118.012 249.186 118.402 249.205 118.84H248.174C248.154 118.578 248.08 118.342 247.951 118.131C247.826 117.92 247.654 117.752 247.436 117.627C247.221 117.498 246.969 117.434 246.68 117.434C246.348 117.434 246.068 117.5 245.842 117.633C245.619 117.762 245.441 117.938 245.309 118.16C245.18 118.379 245.086 118.623 245.027 118.893C244.973 119.158 244.945 119.43 244.945 119.707V119.953C244.945 120.23 244.973 120.504 245.027 120.773C245.082 121.043 245.174 121.287 245.303 121.506C245.436 121.725 245.613 121.9 245.836 122.033C246.062 122.162 246.344 122.227 246.68 122.227ZM254.162 121.916V118.652C254.162 118.402 254.111 118.186 254.01 118.002C253.912 117.814 253.764 117.67 253.564 117.568C253.365 117.467 253.119 117.416 252.826 117.416C252.553 117.416 252.312 117.463 252.105 117.557C251.902 117.65 251.742 117.773 251.625 117.926C251.512 118.078 251.455 118.242 251.455 118.418H250.371C250.371 118.191 250.43 117.967 250.547 117.744C250.664 117.521 250.832 117.32 251.051 117.141C251.273 116.957 251.539 116.812 251.848 116.707C252.16 116.598 252.508 116.543 252.891 116.543C253.352 116.543 253.758 116.621 254.109 116.777C254.465 116.934 254.742 117.17 254.941 117.486C255.145 117.799 255.246 118.191 255.246 118.664V121.617C255.246 121.828 255.264 122.053 255.299 122.291C255.338 122.529 255.395 122.734 255.469 122.906V123H254.338C254.283 122.875 254.24 122.709 254.209 122.502C254.178 122.291 254.162 122.096 254.162 121.916ZM254.35 119.156L254.361 119.918H253.266C252.957 119.918 252.682 119.943 252.439 119.994C252.197 120.041 251.994 120.113 251.83 120.211C251.666 120.309 251.541 120.432 251.455 120.58C251.369 120.725 251.326 120.895 251.326 121.09C251.326 121.289 251.371 121.471 251.461 121.635C251.551 121.799 251.686 121.93 251.865 122.027C252.049 122.121 252.273 122.168 252.539 122.168C252.871 122.168 253.164 122.098 253.418 121.957C253.672 121.816 253.873 121.645 254.021 121.441C254.174 121.238 254.256 121.041 254.268 120.85L254.73 121.371C254.703 121.535 254.629 121.717 254.508 121.916C254.387 122.115 254.225 122.307 254.021 122.49C253.822 122.67 253.584 122.82 253.307 122.941C253.033 123.059 252.725 123.117 252.381 123.117C251.951 123.117 251.574 123.033 251.25 122.865C250.93 122.697 250.68 122.473 250.5 122.191C250.324 121.906 250.236 121.588 250.236 121.236C250.236 120.896 250.303 120.598 250.436 120.34C250.568 120.078 250.76 119.861 251.01 119.689C251.26 119.514 251.561 119.381 251.912 119.291C252.264 119.201 252.656 119.156 253.09 119.156H254.35ZM260.643 121.318C260.643 121.162 260.607 121.018 260.537 120.885C260.471 120.748 260.332 120.625 260.121 120.516C259.914 120.402 259.602 120.305 259.184 120.223C258.832 120.148 258.514 120.061 258.229 119.959C257.947 119.857 257.707 119.734 257.508 119.59C257.312 119.445 257.162 119.275 257.057 119.08C256.951 118.885 256.898 118.656 256.898 118.395C256.898 118.145 256.953 117.908 257.062 117.686C257.176 117.463 257.334 117.266 257.537 117.094C257.744 116.922 257.992 116.787 258.281 116.689C258.57 116.592 258.893 116.543 259.248 116.543C259.756 116.543 260.189 116.633 260.549 116.812C260.908 116.992 261.184 117.232 261.375 117.533C261.566 117.83 261.662 118.16 261.662 118.523H260.578C260.578 118.348 260.525 118.178 260.42 118.014C260.318 117.846 260.168 117.707 259.969 117.598C259.773 117.488 259.533 117.434 259.248 117.434C258.947 117.434 258.703 117.48 258.516 117.574C258.332 117.664 258.197 117.779 258.111 117.92C258.029 118.061 257.988 118.209 257.988 118.365C257.988 118.482 258.008 118.588 258.047 118.682C258.09 118.771 258.164 118.855 258.27 118.934C258.375 119.008 258.523 119.078 258.715 119.145C258.906 119.211 259.15 119.277 259.447 119.344C259.967 119.461 260.395 119.602 260.73 119.766C261.066 119.93 261.316 120.131 261.48 120.369C261.645 120.607 261.727 120.896 261.727 121.236C261.727 121.514 261.668 121.768 261.551 121.998C261.438 122.229 261.271 122.428 261.053 122.596C260.838 122.76 260.58 122.889 260.279 122.982C259.982 123.072 259.648 123.117 259.277 123.117C258.719 123.117 258.246 123.018 257.859 122.818C257.473 122.619 257.18 122.361 256.98 122.045C256.781 121.729 256.682 121.395 256.682 121.043H257.771C257.787 121.34 257.873 121.576 258.029 121.752C258.186 121.924 258.377 122.047 258.604 122.121C258.83 122.191 259.055 122.227 259.277 122.227C259.574 122.227 259.822 122.188 260.021 122.109C260.225 122.031 260.379 121.924 260.484 121.787C260.59 121.65 260.643 121.494 260.643 121.318ZM264.234 114V123H263.15V114H264.234ZM263.977 119.59L263.525 119.572C263.529 119.139 263.594 118.738 263.719 118.371C263.844 118 264.02 117.678 264.246 117.404C264.473 117.131 264.742 116.92 265.055 116.771C265.371 116.619 265.721 116.543 266.104 116.543C266.416 116.543 266.697 116.586 266.947 116.672C267.197 116.754 267.41 116.887 267.586 117.07C267.766 117.254 267.902 117.492 267.996 117.785C268.09 118.074 268.137 118.428 268.137 118.846V123H267.047V118.834C267.047 118.502 266.998 118.236 266.9 118.037C266.803 117.834 266.66 117.688 266.473 117.598C266.285 117.504 266.055 117.457 265.781 117.457C265.512 117.457 265.266 117.514 265.043 117.627C264.824 117.74 264.635 117.896 264.475 118.096C264.318 118.295 264.195 118.523 264.105 118.781C264.02 119.035 263.977 119.305 263.977 119.59ZM272.414 116.66V117.492H268.986V116.66H272.414ZM270.146 115.119H271.23V121.43C271.23 121.645 271.264 121.807 271.33 121.916C271.396 122.025 271.482 122.098 271.588 122.133C271.693 122.168 271.807 122.186 271.928 122.186C272.018 122.186 272.111 122.178 272.209 122.162C272.311 122.143 272.387 122.127 272.438 122.115L272.443 123C272.357 123.027 272.244 123.053 272.104 123.076C271.967 123.104 271.801 123.117 271.605 123.117C271.34 123.117 271.096 123.064 270.873 122.959C270.65 122.854 270.473 122.678 270.34 122.432C270.211 122.182 270.146 121.846 270.146 121.424V115.119ZM273.281 119.9V119.766C273.281 119.309 273.348 118.885 273.48 118.494C273.613 118.1 273.805 117.758 274.055 117.469C274.305 117.176 274.607 116.949 274.963 116.789C275.318 116.625 275.717 116.543 276.158 116.543C276.604 116.543 277.004 116.625 277.359 116.789C277.719 116.949 278.023 117.176 278.273 117.469C278.527 117.758 278.721 118.1 278.854 118.494C278.986 118.885 279.053 119.309 279.053 119.766V119.9C279.053 120.357 278.986 120.781 278.854 121.172C278.721 121.562 278.527 121.904 278.273 122.197C278.023 122.486 277.721 122.713 277.365 122.877C277.014 123.037 276.615 123.117 276.17 123.117C275.725 123.117 275.324 123.037 274.969 122.877C274.613 122.713 274.309 122.486 274.055 122.197C273.805 121.904 273.613 121.562 273.48 121.172C273.348 120.781 273.281 120.357 273.281 119.9ZM274.365 119.766V119.9C274.365 120.217 274.402 120.516 274.477 120.797C274.551 121.074 274.662 121.32 274.811 121.535C274.963 121.75 275.152 121.92 275.379 122.045C275.605 122.166 275.869 122.227 276.17 122.227C276.467 122.227 276.727 122.166 276.949 122.045C277.176 121.92 277.363 121.75 277.512 121.535C277.66 121.32 277.771 121.074 277.846 120.797C277.924 120.516 277.963 120.217 277.963 119.9V119.766C277.963 119.453 277.924 119.158 277.846 118.881C277.771 118.6 277.658 118.352 277.506 118.137C277.357 117.918 277.17 117.746 276.943 117.621C276.721 117.496 276.459 117.434 276.158 117.434C275.861 117.434 275.6 117.496 275.373 117.621C275.15 117.746 274.963 117.918 274.811 118.137C274.662 118.352 274.551 118.6 274.477 118.881C274.402 119.158 274.365 119.453 274.365 119.766ZM281.502 114V123H280.412V114H281.502ZM285.375 116.66L282.609 119.619L281.062 121.225L280.975 120.07L282.082 118.746L284.051 116.66H285.375ZM284.385 123L282.123 119.977L282.686 119.01L285.662 123H284.385ZM289.008 123.117C288.566 123.117 288.166 123.043 287.807 122.895C287.451 122.742 287.145 122.529 286.887 122.256C286.633 121.982 286.438 121.658 286.301 121.283C286.164 120.908 286.096 120.498 286.096 120.053V119.807C286.096 119.291 286.172 118.832 286.324 118.43C286.477 118.023 286.684 117.68 286.945 117.398C287.207 117.117 287.504 116.904 287.836 116.76C288.168 116.615 288.512 116.543 288.867 116.543C289.32 116.543 289.711 116.621 290.039 116.777C290.371 116.934 290.643 117.152 290.854 117.434C291.064 117.711 291.221 118.039 291.322 118.418C291.424 118.793 291.475 119.203 291.475 119.648V120.135H286.74V119.25H290.391V119.168C290.375 118.887 290.316 118.613 290.215 118.348C290.117 118.082 289.961 117.863 289.746 117.691C289.531 117.52 289.238 117.434 288.867 117.434C288.621 117.434 288.395 117.486 288.188 117.592C287.98 117.693 287.803 117.846 287.654 118.049C287.506 118.252 287.391 118.5 287.309 118.793C287.227 119.086 287.186 119.424 287.186 119.807V120.053C287.186 120.354 287.227 120.637 287.309 120.902C287.395 121.164 287.518 121.395 287.678 121.594C287.842 121.793 288.039 121.949 288.27 122.062C288.504 122.176 288.77 122.232 289.066 122.232C289.449 122.232 289.773 122.154 290.039 121.998C290.305 121.842 290.537 121.633 290.736 121.371L291.393 121.893C291.256 122.1 291.082 122.297 290.871 122.484C290.66 122.672 290.4 122.824 290.092 122.941C289.787 123.059 289.426 123.117 289.008 123.117ZM293.824 118.014V123H292.74V116.66H293.766L293.824 118.014ZM293.566 119.59L293.115 119.572C293.119 119.139 293.184 118.738 293.309 118.371C293.434 118 293.609 117.678 293.836 117.404C294.062 117.131 294.332 116.92 294.645 116.771C294.961 116.619 295.311 116.543 295.693 116.543C296.006 116.543 296.287 116.586 296.537 116.672C296.787 116.754 297 116.887 297.176 117.07C297.355 117.254 297.492 117.492 297.586 117.785C297.68 118.074 297.727 118.428 297.727 118.846V123H296.637V118.834C296.637 118.502 296.588 118.236 296.49 118.037C296.393 117.834 296.25 117.688 296.062 117.598C295.875 117.504 295.645 117.457 295.371 117.457C295.102 117.457 294.855 117.514 294.633 117.627C294.414 117.74 294.225 117.896 294.064 118.096C293.908 118.295 293.785 118.523 293.695 118.781C293.609 119.035 293.566 119.305 293.566 119.59Z" fill="#52575C"/>
<g filter="url(#filter1_d_210_455)">
<circle cx="212.5" cy="270.5" r="114.5" fill="white"/>
</g>
<circle cx="212.5" cy="270.5" r="74.5" stroke="#F1EFFB" stroke-width="20"/>
<mask id="path-6-inside-1_210_455" fill="white">
<path d="M212.5 180C227.598 180 242.456 183.777 255.721 190.988C268.986 198.198 280.236 208.613 288.447 221.283C296.658 233.953 301.568 248.476 302.731 263.529C303.894 278.582 301.272 293.687 295.105 307.468C288.938 321.249 279.421 333.268 267.421 342.43C255.421 351.593 241.319 357.607 226.4 359.926C211.481 362.245 196.219 360.795 182.004 355.707C167.789 350.62 155.073 342.057 145.014 330.798L168.621 309.705C175.162 317.025 183.43 322.593 192.672 325.901C201.915 329.208 211.838 330.151 221.538 328.644C231.238 327.136 240.406 323.225 248.209 317.268C256.011 311.311 262.199 303.496 266.209 294.536C270.219 285.576 271.923 275.755 271.167 265.968C270.411 256.18 267.218 246.738 261.88 238.5C256.541 230.262 249.226 223.49 240.602 218.802C231.977 214.114 222.317 211.658 212.5 211.658V180Z"/>
</mask>
<path d="M212.5 180C227.598 180 242.456 183.777 255.721 190.988C268.986 198.198 280.236 208.613 288.447 221.283C296.658 233.953 301.568 248.476 302.731 263.529C303.894 278.582 301.272 293.687 295.105 307.468C288.938 321.249 279.421 333.268 267.421 342.43C255.421 351.593 241.319 357.607 226.4 359.926C211.481 362.245 196.219 360.795 182.004 355.707C167.789 350.62 155.073 342.057 145.014 330.798L168.621 309.705C175.162 317.025 183.43 322.593 192.672 325.901C201.915 329.208 211.838 330.151 221.538 328.644C231.238 327.136 240.406 323.225 248.209 317.268C256.011 311.311 262.199 303.496 266.209 294.536C270.219 285.576 271.923 275.755 271.167 265.968C270.411 256.18 267.218 246.738 261.88 238.5C256.541 230.262 249.226 223.49 240.602 218.802C231.977 214.114 222.317 211.658 212.5 211.658V180Z" fill="url(#paint0_linear_210_455)"/>
<path d="M212.5 180C227.598 180 242.456 183.777 255.721 190.988C268.986 198.198 280.236 208.613 288.447 221.283C296.658 233.953 301.568 248.476 302.731 263.529C303.894 278.582 301.272 293.687 295.105 307.468C288.938 321.249 279.421 333.268 267.421 342.43C255.421 351.593 241.319 357.607 226.4 359.926C211.481 362.245 196.219 360.795 182.004 355.707C167.789 350.62 155.073 342.057 145.014 330.798L168.621 309.705C175.162 317.025 183.43 322.593 192.672 325.901C201.915 329.208 211.838 330.151 221.538 328.644C231.238 327.136 240.406 323.225 248.209 317.268C256.011 311.311 262.199 303.496 266.209 294.536C270.219 285.576 271.923 275.755 271.167 265.968C270.411 256.18 267.218 246.738 261.88 238.5C256.541 230.262 249.226 223.49 240.602 218.802C231.977 214.114 222.317 211.658 212.5 211.658V180Z" stroke="black" stroke-width="2" mask="url(#path-6-inside-1_210_455)"/>
<path d="M212.5 180C227.598 180 242.456 183.777 255.721 190.988C268.986 198.198 280.236 208.613 288.447 221.283C296.658 233.953 301.568 248.476 302.731 263.529C303.894 278.582 301.272 293.687 295.105 307.468C288.938 321.249 279.421 333.268 267.421 342.43C255.421 351.593 241.319 357.607 226.4 359.926C211.481 362.245 196.219 360.795 182.004 355.707C167.789 350.62 155.073 342.057 145.014 330.798L168.621 309.705C175.162 317.025 183.43 322.593 192.672 325.901C201.915 329.208 211.838 330.151 221.538 328.644C231.238 327.136 240.406 323.225 248.209 317.268C256.011 311.311 262.199 303.496 266.209 294.536C270.219 285.576 271.923 275.755 271.167 265.968C270.411 256.18 267.218 246.738 261.88 238.5C256.541 230.262 249.226 223.49 240.602 218.802C231.977 214.114 222.317 211.658 212.5 211.658V180Z" stroke="black" stroke-opacity="0.2" stroke-width="2" mask="url(#path-6-inside-1_210_455)"/>
<g filter="url(#filter2_d_210_455)">
<path d="M212.5 173C231.651 173 250.307 179.075 265.786 190.351C281.265 201.627 292.768 217.522 298.641 235.75L259.701 248.295C256.483 238.306 250.18 229.597 241.698 223.418C233.217 217.239 222.994 213.911 212.5 213.911V173Z" fill="url(#paint1_linear_210_455)"/>
</g>
<path d="M199.753 268.333C199.626 267.747 199.405 267.312 199.088 267.026C198.771 266.725 198.319 266.575 197.733 266.575C196.83 266.575 196.181 266.971 195.784 267.763C195.388 268.539 195.182 269.775 195.167 271.47C195.515 270.916 196.014 270.48 196.664 270.163C197.329 269.846 198.058 269.688 198.85 269.688C200.403 269.688 201.646 270.179 202.581 271.161C203.532 272.144 204.007 273.514 204.007 275.273C204.007 276.429 203.769 277.443 203.294 278.315C202.835 279.186 202.153 279.867 201.25 280.358C200.363 280.849 199.31 281.095 198.09 281.095C195.65 281.095 193.955 280.335 193.004 278.814C192.053 277.277 191.578 275.075 191.578 272.207C191.578 269.197 192.077 266.963 193.075 265.505C194.089 264.032 195.705 263.295 197.923 263.295C199.112 263.295 200.11 263.533 200.918 264.008C201.742 264.468 202.359 265.078 202.771 265.838C203.199 266.599 203.453 267.43 203.532 268.333H199.753ZM197.876 272.896C197.195 272.896 196.624 273.102 196.165 273.514C195.721 273.91 195.499 274.481 195.499 275.225C195.499 275.986 195.705 276.58 196.117 277.008C196.545 277.435 197.147 277.649 197.923 277.649C198.62 277.649 199.167 277.443 199.563 277.031C199.975 276.604 200.181 276.025 200.181 275.296C200.181 274.552 199.983 273.966 199.587 273.538C199.191 273.11 198.62 272.896 197.876 272.896ZM218.283 267.193H210.868V270.472C211.185 270.124 211.629 269.839 212.199 269.617C212.77 269.395 213.387 269.284 214.053 269.284C215.241 269.284 216.223 269.553 217 270.092C217.792 270.631 218.37 271.328 218.735 272.183C219.099 273.039 219.281 273.966 219.281 274.964C219.281 276.817 218.758 278.291 217.713 279.384C216.667 280.461 215.194 281 213.292 281C212.025 281 210.924 280.786 209.989 280.358C209.054 279.915 208.333 279.305 207.827 278.528C207.32 277.752 207.042 276.857 206.995 275.843H210.963C211.059 276.334 211.288 276.746 211.653 277.079C212.017 277.396 212.516 277.554 213.15 277.554C213.894 277.554 214.449 277.316 214.813 276.841C215.178 276.366 215.36 275.732 215.36 274.94C215.36 274.164 215.17 273.57 214.79 273.158C214.409 272.746 213.855 272.54 213.126 272.54C212.587 272.54 212.144 272.674 211.795 272.944C211.447 273.197 211.217 273.538 211.106 273.966H207.185V263.628H218.283V267.193ZM220.954 268.024C220.954 266.741 221.318 265.751 222.047 265.054C222.792 264.357 223.75 264.008 224.923 264.008C226.095 264.008 227.046 264.357 227.774 265.054C228.503 265.751 228.868 266.741 228.868 268.024C228.868 269.308 228.503 270.298 227.774 270.995C227.046 271.692 226.095 272.041 224.923 272.041C223.75 272.041 222.792 271.692 222.047 270.995C221.318 270.298 220.954 269.308 220.954 268.024ZM237.09 264.27L227.941 281H224.02L233.169 264.27H237.09ZM224.899 266.385C224.138 266.385 223.758 266.931 223.758 268.024C223.758 269.102 224.138 269.64 224.899 269.64C225.263 269.64 225.548 269.506 225.754 269.236C225.96 268.967 226.063 268.563 226.063 268.024C226.063 266.931 225.675 266.385 224.899 266.385ZM232.266 277.245C232.266 275.962 232.63 274.972 233.359 274.275C234.088 273.577 235.038 273.229 236.211 273.229C237.383 273.229 238.334 273.577 239.063 274.275C239.791 274.972 240.156 275.962 240.156 277.245C240.156 278.528 239.791 279.519 239.063 280.216C238.334 280.913 237.383 281.261 236.211 281.261C235.038 281.261 234.088 280.913 233.359 280.216C232.63 279.519 232.266 278.528 232.266 277.245ZM236.187 275.605C235.823 275.605 235.538 275.74 235.332 276.009C235.141 276.279 235.046 276.691 235.046 277.245C235.046 278.323 235.427 278.861 236.187 278.861C236.551 278.861 236.837 278.727 237.043 278.457C237.249 278.188 237.352 277.784 237.352 277.245C237.352 276.707 237.249 276.303 237.043 276.033C236.837 275.748 236.551 275.605 236.187 275.605Z" fill="black"/>
<defs>
<filter id="filter0_d_210_455" x="0" y="0" width="424" height="498" filterUnits="userSpaceOnUse" color-interpolation-filters="sRGB">
<feFlood flood-opacity="0" result="BackgroundImageFix"/>
<feColorMatrix in="SourceAlpha" type="matrix" values="0 0 0 0 0 0 0 0 0 0 0 0 0 0 0 0 0 0 127 0" result="hardAlpha"/>
<feOffset dy="10"/>
<feGaussianBlur stdDeviation="30"/>
<feComposite in2="hardAlpha" operator="out"/>
<feColorMatrix type="matrix" values="0 0 0 0 0.885625 0 0 0 0 0.92625 0 0 0 0 0.975 0 0 0 0.5 0"/>
<feBlend mode="normal" in2="BackgroundImageFix" result="effect1_dropShadow_210_455"/>
<feBlend mode="normal" in="SourceGraphic" in2="effect1_dropShadow_210_455" result="shape"/>
</filter>
<filter id="filter1_d_210_455" x="38" y="106" width="349" height="349" filterUnits="userSpaceOnUse" color-interpolation-filters="sRGB">
<feFlood flood-opacity="0" result="BackgroundImageFix"/>
<feColorMatrix in="SourceAlpha" type="matrix" values="0 0 0 0 0 0 0 0 0 0 0 0 0 0 0 0 0 0 127 0" result="hardAlpha"/>
<feOffset dy="10"/>
<feGaussianBlur stdDeviation="30"/>
<feComposite in2="hardAlpha" operator="out"/>
<feColorMatrix type="matrix" values="0 0 0 0 0.885625 0 0 0 0 0.92625 0 0 0 0 0.975 0 0 0 0.5 0"/>
<feBlend mode="normal" in2="BackgroundImageFix" result="effect1_dropShadow_210_455"/>
<feBlend mode="normal" in="SourceGraphic" in2="effect1_dropShadow_210_455" result="shape"/>
</filter>
<filter id="filter2_d_210_455" x="208.5" y="173" width="94.1406" height="83.2945" filterUnits="userSpaceOnUse" color-interpolation-filters="sRGB">
<feFlood flood-opacity="0" result="BackgroundImageFix"/>
<feColorMatrix in="SourceAlpha" type="matrix" values="0 0 0 0 0 0 0 0 0 0 0 0 0 0 0 0 0 0 127 0" result="hardAlpha"/>
<feOffset dy="4"/>
<feGaussianBlur stdDeviation="2"/>
<feComposite in2="hardAlpha" operator="out"/>
<feColorMatrix type="matrix" values="0 0 0 0 0 0 0 0 0 0 0 0 0 0 0 0 0 0 0.25 0"/>
<feBlend mode="normal" in2="BackgroundImageFix" result="effect1_dropShadow_210_455"/>
<feBlend mode="normal" in="SourceGraphic" in2="effect1_dropShadow_210_455" result="shape"/>
</filter>
<linearGradient id="paint0_linear_210_455" x1="169.784" y1="86.7782" x2="360.211" y2="148.317" gradientUnits="userSpaceOnUse">
<stop stop-color="#F0ABC9"/>
<stop offset="1" stop-color="#4623E9"/>
</linearGradient>
<linearGradient id="paint1_linear_210_455" x1="282.638" y1="173" x2="212.5" y2="354" gradientUnits="userSpaceOnUse">
<stop stop-color="#D7A52B"/>
<stop offset="1" stop-color="#CDF4FF"/>
</linearGradient>
</defs>
</svg>
