<svg width="349" height="349" viewBox="0 0 349 349" fill="none" xmlns="http://www.w3.org/2000/svg">
<g filter="url(#filter0_d_571_43)">
<circle cx="174.5" cy="164.5" r="114.5" fill="white"/>
</g>
<circle cx="174.5" cy="164.5" r="74.5" stroke="#F1EFFB" stroke-width="20"/>
<mask id="path-3-inside-1_571_43" fill="white">
<path d="M174.5 74C189.598 74 204.456 77.7773 217.721 84.9878C230.986 92.1982 242.236 102.613 250.447 115.283C258.658 127.953 263.568 142.476 264.731 157.529C265.894 172.582 263.272 187.687 257.105 201.468C250.938 215.249 241.421 227.268 229.421 236.43C217.421 245.593 203.319 251.607 188.4 253.926C173.481 256.245 158.219 254.795 144.004 249.707C129.789 244.62 117.073 236.057 107.014 224.798L130.621 203.705C137.162 211.025 145.43 216.593 154.672 219.901C163.915 223.208 173.838 224.151 183.538 222.644C193.238 221.136 202.406 217.225 210.209 211.268C218.011 205.311 224.199 197.496 228.209 188.536C232.219 179.576 233.923 169.755 233.167 159.968C232.411 150.18 229.218 140.738 223.88 132.5C218.541 124.262 211.226 117.49 202.602 112.802C193.977 108.114 184.317 105.658 174.5 105.658V74Z"/>
</mask>
<path d="M174.5 74C189.598 74 204.456 77.7773 217.721 84.9878C230.986 92.1982 242.236 102.613 250.447 115.283C258.658 127.953 263.568 142.476 264.731 157.529C265.894 172.582 263.272 187.687 257.105 201.468C250.938 215.249 241.421 227.268 229.421 236.43C217.421 245.593 203.319 251.607 188.4 253.926C173.481 256.245 158.219 254.795 144.004 249.707C129.789 244.62 117.073 236.057 107.014 224.798L130.621 203.705C137.162 211.025 145.43 216.593 154.672 219.901C163.915 223.208 173.838 224.151 183.538 222.644C193.238 221.136 202.406 217.225 210.209 211.268C218.011 205.311 224.199 197.496 228.209 188.536C232.219 179.576 233.923 169.755 233.167 159.968C232.411 150.18 229.218 140.738 223.88 132.5C218.541 124.262 211.226 117.49 202.602 112.802C193.977 108.114 184.317 105.658 174.5 105.658V74Z" fill="url(#paint0_linear_571_43)"/>
<path d="M174.5 74C189.598 74 204.456 77.7773 217.721 84.9878C230.986 92.1982 242.236 102.613 250.447 115.283C258.658 127.953 263.568 142.476 264.731 157.529C265.894 172.582 263.272 187.687 257.105 201.468C250.938 215.249 241.421 227.268 229.421 236.43C217.421 245.593 203.319 251.607 188.4 253.926C173.481 256.245 158.219 254.795 144.004 249.707C129.789 244.62 117.073 236.057 107.014 224.798L130.621 203.705C137.162 211.025 145.43 216.593 154.672 219.901C163.915 223.208 173.838 224.151 183.538 222.644C193.238 221.136 202.406 217.225 210.209 211.268C218.011 205.311 224.199 197.496 228.209 188.536C232.219 179.576 233.923 169.755 233.167 159.968C232.411 150.18 229.218 140.738 223.88 132.5C218.541 124.262 211.226 117.49 202.602 112.802C193.977 108.114 184.317 105.658 174.5 105.658V74Z" stroke="black" stroke-width="2" mask="url(#path-3-inside-1_571_43)"/>
<path d="M174.5 74C189.598 74 204.456 77.7773 217.721 84.9878C230.986 92.1982 242.236 102.613 250.447 115.283C258.658 127.953 263.568 142.476 264.731 157.529C265.894 172.582 263.272 187.687 257.105 201.468C250.938 215.249 241.421 227.268 229.421 236.43C217.421 245.593 203.319 251.607 188.4 253.926C173.481 256.245 158.219 254.795 144.004 249.707C129.789 244.62 117.073 236.057 107.014 224.798L130.621 203.705C137.162 211.025 145.43 216.593 154.672 219.901C163.915 223.208 173.838 224.151 183.538 222.644C193.238 221.136 202.406 217.225 210.209 211.268C218.011 205.311 224.199 197.496 228.209 188.536C232.219 179.576 233.923 169.755 233.167 159.968C232.411 150.18 229.218 140.738 223.88 132.5C218.541 124.262 211.226 117.49 202.602 112.802C193.977 108.114 184.317 105.658 174.5 105.658V74Z" stroke="black" stroke-opacity="0.2" stroke-width="2" mask="url(#path-3-inside-1_571_43)"/>
<g filter="url(#filter1_d_571_43)">
<path d="M174.5 67C193.651 67 212.307 73.075 227.786 84.3508C243.265 95.6267 254.768 111.522 260.641 129.75L221.701 142.295C218.483 132.306 212.18 123.597 203.698 117.418C195.217 111.239 184.994 107.911 174.5 107.911V67Z" fill="url(#paint1_linear_571_43)"/>
</g>
<path d="M161.753 162.333C161.626 161.747 161.405 161.312 161.088 161.026C160.771 160.725 160.319 160.575 159.733 160.575C158.83 160.575 158.181 160.971 157.784 161.763C157.388 162.539 157.182 163.775 157.167 165.47C157.515 164.916 158.014 164.48 158.664 164.163C159.329 163.846 160.058 163.688 160.85 163.688C162.403 163.688 163.646 164.179 164.581 165.161C165.532 166.144 166.007 167.514 166.007 169.273C166.007 170.429 165.769 171.443 165.294 172.315C164.835 173.186 164.153 173.867 163.25 174.358C162.363 174.849 161.31 175.095 160.09 175.095C157.65 175.095 155.955 174.335 155.004 172.814C154.053 171.277 153.578 169.075 153.578 166.207C153.578 163.197 154.077 160.963 155.075 159.505C156.089 158.032 157.705 157.295 159.923 157.295C161.112 157.295 162.11 157.533 162.918 158.008C163.742 158.468 164.359 159.078 164.771 159.838C165.199 160.599 165.453 161.43 165.532 162.333H161.753ZM159.876 166.896C159.195 166.896 158.624 167.102 158.165 167.514C157.721 167.91 157.499 168.481 157.499 169.225C157.499 169.986 157.705 170.58 158.117 171.008C158.545 171.435 159.147 171.649 159.923 171.649C160.62 171.649 161.167 171.443 161.563 171.031C161.975 170.604 162.181 170.025 162.181 169.296C162.181 168.552 161.983 167.966 161.587 167.538C161.191 167.11 160.62 166.896 159.876 166.896ZM180.283 161.193H172.868V164.472C173.185 164.124 173.629 163.839 174.199 163.617C174.77 163.395 175.387 163.284 176.053 163.284C177.241 163.284 178.223 163.553 179 164.092C179.792 164.631 180.37 165.328 180.735 166.183C181.099 167.039 181.281 167.966 181.281 168.964C181.281 170.817 180.758 172.291 179.713 173.384C178.667 174.461 177.194 175 175.292 175C174.025 175 172.924 174.786 171.989 174.358C171.054 173.915 170.333 173.305 169.827 172.528C169.32 171.752 169.042 170.857 168.995 169.843H172.963C173.059 170.334 173.288 170.746 173.653 171.079C174.017 171.396 174.516 171.554 175.15 171.554C175.894 171.554 176.449 171.316 176.813 170.841C177.178 170.366 177.36 169.732 177.36 168.94C177.36 168.164 177.17 167.57 176.79 167.158C176.409 166.746 175.855 166.54 175.126 166.54C174.587 166.54 174.144 166.674 173.795 166.944C173.447 167.197 173.217 167.538 173.106 167.966H169.185V157.628H180.283V161.193ZM182.954 162.024C182.954 160.741 183.318 159.751 184.047 159.054C184.792 158.357 185.75 158.008 186.923 158.008C188.095 158.008 189.046 158.357 189.774 159.054C190.503 159.751 190.868 160.741 190.868 162.024C190.868 163.308 190.503 164.298 189.774 164.995C189.046 165.692 188.095 166.041 186.923 166.041C185.75 166.041 184.792 165.692 184.047 164.995C183.318 164.298 182.954 163.308 182.954 162.024ZM199.09 158.27L189.941 175H186.02L195.169 158.27H199.09ZM186.899 160.385C186.138 160.385 185.758 160.931 185.758 162.024C185.758 163.102 186.138 163.64 186.899 163.64C187.263 163.64 187.548 163.506 187.754 163.236C187.96 162.967 188.063 162.563 188.063 162.024C188.063 160.931 187.675 160.385 186.899 160.385ZM194.266 171.245C194.266 169.962 194.63 168.972 195.359 168.275C196.088 167.577 197.038 167.229 198.211 167.229C199.383 167.229 200.334 167.577 201.063 168.275C201.791 168.972 202.156 169.962 202.156 171.245C202.156 172.528 201.791 173.519 201.063 174.216C200.334 174.913 199.383 175.261 198.211 175.261C197.038 175.261 196.088 174.913 195.359 174.216C194.63 173.519 194.266 172.528 194.266 171.245ZM198.187 169.605C197.823 169.605 197.538 169.74 197.332 170.009C197.141 170.279 197.046 170.691 197.046 171.245C197.046 172.323 197.427 172.861 198.187 172.861C198.551 172.861 198.837 172.727 199.043 172.457C199.249 172.188 199.352 171.784 199.352 171.245C199.352 170.707 199.249 170.303 199.043 170.033C198.837 169.748 198.551 169.605 198.187 169.605Z" fill="black"/>
<defs>
<filter id="filter0_d_571_43" x="0" y="0" width="349" height="349" filterUnits="userSpaceOnUse" color-interpolation-filters="sRGB">
<feFlood flood-opacity="0" result="BackgroundImageFix"/>
<feColorMatrix in="SourceAlpha" type="matrix" values="0 0 0 0 0 0 0 0 0 0 0 0 0 0 0 0 0 0 127 0" result="hardAlpha"/>
<feOffset dy="10"/>
<feGaussianBlur stdDeviation="30"/>
<feComposite in2="hardAlpha" operator="out"/>
<feColorMatrix type="matrix" values="0 0 0 0 0.885625 0 0 0 0 0.92625 0 0 0 0 0.975 0 0 0 0.5 0"/>
<feBlend mode="normal" in2="BackgroundImageFix" result="effect1_dropShadow_571_43"/>
<feBlend mode="normal" in="SourceGraphic" in2="effect1_dropShadow_571_43" result="shape"/>
</filter>
<filter id="filter1_d_571_43" x="170.5" y="67" width="94.1406" height="83.2945" filterUnits="userSpaceOnUse" color-interpolation-filters="sRGB">
<feFlood flood-opacity="0" result="BackgroundImageFix"/>
<feColorMatrix in="SourceAlpha" type="matrix" values="0 0 0 0 0 0 0 0 0 0 0 0 0 0 0 0 0 0 127 0" result="hardAlpha"/>
<feOffset dy="4"/>
<feGaussianBlur stdDeviation="2"/>
<feComposite in2="hardAlpha" operator="out"/>
<feColorMatrix type="matrix" values="0 0 0 0 0 0 0 0 0 0 0 0 0 0 0 0 0 0 0.25 0"/>
<feBlend mode="normal" in2="BackgroundImageFix" result="effect1_dropShadow_571_43"/>
<feBlend mode="normal" in="SourceGraphic" in2="effect1_dropShadow_571_43" result="shape"/>
</filter>
<linearGradient id="paint0_linear_571_43" x1="131.784" y1="-19.2218" x2="322.211" y2="42.3171" gradientUnits="userSpaceOnUse">
<stop stop-color="#F0ABC9"/>
<stop offset="1" stop-color="#4623E9"/>
</linearGradient>
<linearGradient id="paint1_linear_571_43" x1="244.638" y1="67" x2="174.5" y2="248" gradientUnits="userSpaceOnUse">
<stop stop-color="#D7A52B"/>
<stop offset="1" stop-color="#CDF4FF"/>
</linearGradient>
</defs>
</svg>
