<svg width="349" height="349" viewBox="0 0 349 349" fill="none" xmlns="http://www.w3.org/2000/svg">
<g filter="url(#filter0_d_549_28)">
<circle cx="174.5" cy="164.5" r="114.5" fill="white"/>
</g>
<circle cx="174.5" cy="164.5" r="74.5" stroke="#F1EFFB" stroke-width="20"/>
<mask id="path-3-inside-1_549_28" fill="white">
<path d="M174.5 74C189.598 74 204.456 77.7773 217.721 84.9878C230.986 92.1982 242.236 102.613 250.447 115.283C258.658 127.953 263.568 142.476 264.731 157.529C265.894 172.582 263.272 187.687 257.105 201.468C250.938 215.249 241.421 227.268 229.421 236.43C217.421 245.593 203.319 251.607 188.4 253.926C173.481 256.245 158.219 254.795 144.004 249.707C129.789 244.62 117.073 236.057 107.014 224.798L130.621 203.705C137.162 211.025 145.43 216.593 154.672 219.901C163.915 223.208 173.838 224.151 183.538 222.644C193.238 221.136 202.406 217.225 210.209 211.268C218.011 205.311 224.199 197.496 228.209 188.536C232.219 179.576 233.923 169.755 233.167 159.968C232.411 150.18 229.218 140.738 223.88 132.5C218.541 124.262 211.226 117.49 202.602 112.802C193.977 108.114 184.317 105.658 174.5 105.658V74Z"/>
</mask>
<path d="M174.5 74C189.598 74 204.456 77.7773 217.721 84.9878C230.986 92.1982 242.236 102.613 250.447 115.283C258.658 127.953 263.568 142.476 264.731 157.529C265.894 172.582 263.272 187.687 257.105 201.468C250.938 215.249 241.421 227.268 229.421 236.43C217.421 245.593 203.319 251.607 188.4 253.926C173.481 256.245 158.219 254.795 144.004 249.707C129.789 244.62 117.073 236.057 107.014 224.798L130.621 203.705C137.162 211.025 145.43 216.593 154.672 219.901C163.915 223.208 173.838 224.151 183.538 222.644C193.238 221.136 202.406 217.225 210.209 211.268C218.011 205.311 224.199 197.496 228.209 188.536C232.219 179.576 233.923 169.755 233.167 159.968C232.411 150.18 229.218 140.738 223.88 132.5C218.541 124.262 211.226 117.49 202.602 112.802C193.977 108.114 184.317 105.658 174.5 105.658V74Z" fill="url(#paint0_linear_549_28)"/>
<path d="M174.5 74C189.598 74 204.456 77.7773 217.721 84.9878C230.986 92.1982 242.236 102.613 250.447 115.283C258.658 127.953 263.568 142.476 264.731 157.529C265.894 172.582 263.272 187.687 257.105 201.468C250.938 215.249 241.421 227.268 229.421 236.43C217.421 245.593 203.319 251.607 188.4 253.926C173.481 256.245 158.219 254.795 144.004 249.707C129.789 244.62 117.073 236.057 107.014 224.798L130.621 203.705C137.162 211.025 145.43 216.593 154.672 219.901C163.915 223.208 173.838 224.151 183.538 222.644C193.238 221.136 202.406 217.225 210.209 211.268C218.011 205.311 224.199 197.496 228.209 188.536C232.219 179.576 233.923 169.755 233.167 159.968C232.411 150.18 229.218 140.738 223.88 132.5C218.541 124.262 211.226 117.49 202.602 112.802C193.977 108.114 184.317 105.658 174.5 105.658V74Z" stroke="black" stroke-width="2" mask="url(#path-3-inside-1_549_28)"/>
<path d="M174.5 74C189.598 74 204.456 77.7773 217.721 84.9878C230.986 92.1982 242.236 102.613 250.447 115.283C258.658 127.953 263.568 142.476 264.731 157.529C265.894 172.582 263.272 187.687 257.105 201.468C250.938 215.249 241.421 227.268 229.421 236.43C217.421 245.593 203.319 251.607 188.4 253.926C173.481 256.245 158.219 254.795 144.004 249.707C129.789 244.62 117.073 236.057 107.014 224.798L130.621 203.705C137.162 211.025 145.43 216.593 154.672 219.901C163.915 223.208 173.838 224.151 183.538 222.644C193.238 221.136 202.406 217.225 210.209 211.268C218.011 205.311 224.199 197.496 228.209 188.536C232.219 179.576 233.923 169.755 233.167 159.968C232.411 150.18 229.218 140.738 223.88 132.5C218.541 124.262 211.226 117.49 202.602 112.802C193.977 108.114 184.317 105.658 174.5 105.658V74Z" stroke="black" stroke-opacity="0.2" stroke-width="2" mask="url(#path-3-inside-1_549_28)"/>
<g filter="url(#filter1_d_549_28)">
<path d="M174.5 67C193.651 67 212.307 73.075 227.786 84.3508C243.265 95.6267 254.768 111.522 260.641 129.75L221.701 142.295C218.483 132.306 212.18 123.597 203.698 117.418C195.217 111.239 184.994 107.911 174.5 107.911V67Z" fill="url(#paint1_linear_549_28)"/>
</g>
<defs>
<filter id="filter0_d_549_28" x="0" y="0" width="349" height="349" filterUnits="userSpaceOnUse" color-interpolation-filters="sRGB">
<feFlood flood-opacity="0" result="BackgroundImageFix"/>
<feColorMatrix in="SourceAlpha" type="matrix" values="0 0 0 0 0 0 0 0 0 0 0 0 0 0 0 0 0 0 127 0" result="hardAlpha"/>
<feOffset dy="10"/>
<feGaussianBlur stdDeviation="30"/>
<feComposite in2="hardAlpha" operator="out"/>
<feColorMatrix type="matrix" values="0 0 0 0 0.885625 0 0 0 0 0.92625 0 0 0 0 0.975 0 0 0 0.5 0"/>
<feBlend mode="normal" in2="BackgroundImageFix" result="effect1_dropShadow_549_28"/>
<feBlend mode="normal" in="SourceGraphic" in2="effect1_dropShadow_549_28" result="shape"/>
</filter>
<filter id="filter1_d_549_28" x="170.5" y="67" width="94.1406" height="83.2945" filterUnits="userSpaceOnUse" color-interpolation-filters="sRGB">
<feFlood flood-opacity="0" result="BackgroundImageFix"/>
<feColorMatrix in="SourceAlpha" type="matrix" values="0 0 0 0 0 0 0 0 0 0 0 0 0 0 0 0 0 0 127 0" result="hardAlpha"/>
<feOffset dy="4"/>
<feGaussianBlur stdDeviation="2"/>
<feComposite in2="hardAlpha" operator="out"/>
<feColorMatrix type="matrix" values="0 0 0 0 0 0 0 0 0 0 0 0 0 0 0 0 0 0 0.25 0"/>
<feBlend mode="normal" in2="BackgroundImageFix" result="effect1_dropShadow_549_28"/>
<feBlend mode="normal" in="SourceGraphic" in2="effect1_dropShadow_549_28" result="shape"/>
</filter>
<linearGradient id="paint0_linear_549_28" x1="131.784" y1="-19.2218" x2="322.211" y2="42.3171" gradientUnits="userSpaceOnUse">
<stop stop-color="#F0ABC9"/>
<stop offset="1" stop-color="#4623E9"/>
</linearGradient>
<linearGradient id="paint1_linear_549_28" x1="244.638" y1="67" x2="174.5" y2="248" gradientUnits="userSpaceOnUse">
<stop stop-color="#D7A52B"/>
<stop offset="1" stop-color="#CDF4FF"/>
</linearGradient>
</defs>
</svg>
