<svg xmlns="http://www.w3.org/2000/svg" width="45.716" height="31.429" viewBox="0 0 45.716 31.429"><g transform="translate(0 -80)"><g transform="translate(30.304 85.794)"><path d="M339.392,155.051l15.412,9.743V144.9Z" transform="translate(-339.392 -144.896)"/></g><g transform="translate(0 85.794)"><path d="M0,144.9v19.9l15.412-9.743Z" transform="translate(0 -144.896)"/></g><g transform="translate(0.086 80)"><path d="M43.733,80h-40A2.822,2.822,0,0,0,.96,82.431l22.772,15,22.772-15A2.822,2.822,0,0,0,43.733,80Z" transform="translate(-0.96 -80)"/></g><g transform="translate(0.091 97.672)"><path d="M28.619,277.923l-4.043,2.663a1.434,1.434,0,0,1-1.571,0l-4.043-2.666L1.024,289.266a2.817,2.817,0,0,0,2.766,2.411h40a2.817,2.817,0,0,0,2.766-2.411Z" transform="translate(-1.024 -277.92)"/></g></g></svg>