<svg xmlns="http://www.w3.org/2000/svg" width="37.332" height="37.333" viewBox="0 0 37.332 37.333"><defs><style>.a{fill:#1976d2;}.b{fill:#fafafa;}</style></defs><g transform="translate(0 0)"><path class="a" d="M32.666,0h-28A4.671,4.671,0,0,0,0,4.667v28a4.671,4.671,0,0,0,4.667,4.667h28a4.671,4.671,0,0,0,4.667-4.667v-28A4.671,4.671,0,0,0,32.666,0Z" transform="translate(0 0)"/><path class="b" d="M209.5,107.667h-5.833V103c0-1.288,1.045-1.167,2.333-1.167h2.333V96h-4.667a7,7,0,0,0-7,7v4.667H192V113.5h4.667v12.833h7V113.5h3.5Z" transform="translate(-178 -89)"/></g></svg>