<svg width="40" height="40" viewBox="0 0 40 40" fill="none" xmlns="http://www.w3.org/2000/svg">
<mask id="mask0_1321_1139" style="mask-type:alpha" maskUnits="userSpaceOnUse" x="0" y="0" width="40" height="40">
<rect width="40" height="40" fill="#D9D9D9"/>
</mask>
<g mask="url(#mask0_1321_1139)">
<path d="M10.3333 36.667C9.41667 36.667 8.63194 36.3406 7.97917 35.6878C7.32639 35.035 7 34.2503 7 33.3337V16.667C7 15.7503 7.32639 14.9656 7.97917 14.3128C8.63194 13.66 9.41667 13.3337 10.3333 13.3337H12V10.0003C12 7.69477 12.8125 5.72949 14.4375 4.10449C16.0625 2.47949 18.0278 1.66699 20.3333 1.66699C22.6389 1.66699 24.6042 2.47949 26.2292 4.10449C27.8542 5.72949 28.6667 7.69477 28.6667 10.0003V13.3337H30.3333C31.25 13.3337 32.0347 13.66 32.6875 14.3128C33.3403 14.9656 33.6667 15.7503 33.6667 16.667V33.3337C33.6667 34.2503 33.3403 35.035 32.6875 35.6878C32.0347 36.3406 31.25 36.667 30.3333 36.667H10.3333ZM10.3333 33.3337H30.3333V16.667H10.3333V33.3337ZM20.3333 28.3337C21.25 28.3337 22.0347 28.0073 22.6875 27.3545C23.3403 26.7017 23.6667 25.917 23.6667 25.0003C23.6667 24.0837 23.3403 23.2989 22.6875 22.6462C22.0347 21.9934 21.25 21.667 20.3333 21.667C19.4167 21.667 18.6319 21.9934 17.9792 22.6462C17.3264 23.2989 17 24.0837 17 25.0003C17 25.917 17.3264 26.7017 17.9792 27.3545C18.6319 28.0073 19.4167 28.3337 20.3333 28.3337ZM15.3333 13.3337H25.3333V10.0003C25.3333 8.61144 24.8472 7.43088 23.875 6.45866C22.9028 5.48644 21.7222 5.00033 20.3333 5.00033C18.9444 5.00033 17.7639 5.48644 16.7917 6.45866C15.8194 7.43088 15.3333 8.61144 15.3333 10.0003V13.3337Z" fill="#D7A52B"/>
</g>
</svg>
