<svg xmlns="http://www.w3.org/2000/svg" width="37.332" height="36.006" viewBox="0 0 37.332 36.006"><g transform="translate(0 0)"><g transform="translate(0 0)"><path d="M35.9,16.06a16.224,16.224,0,0,0-7.064-5.01,27.637,27.637,0,0,0-20.317-.03,16.218,16.218,0,0,0-7.08,4.988A6.4,6.4,0,0,0,.29,21.895a3.085,3.085,0,0,0,2.957,2.132l4.663,0h0a3.115,3.115,0,0,0,2.4-1.117,3.065,3.065,0,0,0,.668-2.519q-.007-.04-.017-.079l-.245-.954a19.024,19.024,0,0,1,7.953-1.881A19.529,19.529,0,0,1,26.62,19.4l-.249.948q-.011.04-.018.081a3.065,3.065,0,0,0,.66,2.521,3.115,3.115,0,0,0,2.4,1.124l4.663,0h0a3.085,3.085,0,0,0,2.958-2.123A6.411,6.411,0,0,0,35.9,16.06Z" transform="translate(0 -9.1)"/></g><g transform="translate(3.896 13.109)"><path d="M78.745,195.519l-3.477-3.651a1.114,1.114,0,0,0-.807-.346H72.214V190a1.114,1.114,0,1,0-2.228,0v1.518H66.419V190a1.114,1.114,0,1,0-2.228,0v1.518H61.944a1.114,1.114,0,0,0-.807.346l-3.477,3.651a15.263,15.263,0,0,0-4.228,10.57v4.583a1.114,1.114,0,0,0,1.114,1.114H81.859a1.114,1.114,0,0,0,1.114-1.114V206.09A15.262,15.262,0,0,0,78.745,195.519ZM68.2,207.714a5.83,5.83,0,1,1,5.83-5.83A5.837,5.837,0,0,1,68.2,207.714Z" transform="translate(-53.432 -188.89)"/></g><g transform="translate(15.064 22.501)"><path d="M210.205,317.691a3.6,3.6,0,1,0,3.6,3.6A3.606,3.606,0,0,0,210.205,317.691Z" transform="translate(-206.603 -317.691)"/></g></g></svg>