<svg xmlns="http://www.w3.org/2000/svg" width="35.776" height="29.404" viewBox="0 0 35.776 29.404"><defs><style>.a{fill:#03a9f4;}</style></defs><path class="a" d="M35.571,47.292a.778.778,0,0,0-.933-.165,6.643,6.643,0,0,1-.994.359,7,7,0,0,0,1.182-2.276.778.778,0,0,0-1.2-.837,16.347,16.347,0,0,1-3.743,1.464,7.827,7.827,0,0,0-9.808-.758,7.719,7.719,0,0,0-3.36,7.132,18.417,18.417,0,0,1-12.9-6.947.8.8,0,0,0-.661-.291.778.778,0,0,0-.622.38A7.529,7.529,0,0,0,1.678,51.2,8.323,8.323,0,0,0,3.03,54.024a4.13,4.13,0,0,1-.79-.506.778.778,0,0,0-1.268.6,8.044,8.044,0,0,0,4.144,6.907,5.768,5.768,0,0,1-1-.215.778.778,0,0,0-.933,1.064A8.488,8.488,0,0,0,9.073,66.7,13.7,13.7,0,0,1,.867,68.39a.767.767,0,0,0-.829.532A.778.778,0,0,0,.4,69.84a23.309,23.309,0,0,0,11.5,3.267A19.742,19.742,0,0,0,22.8,69.77c6.164-4.091,10.007-11.436,9.472-18.009a14.529,14.529,0,0,0,3.382-3.525A.778.778,0,0,0,35.571,47.292Z" transform="translate(0 -43.702)"/></svg>